<svg width="168" height="184" viewBox="0 0 168 184" fill="none" xmlns="http://www.w3.org/2000/svg">
<path d="M60.9886 90.8452C57.8535 90.8452 54.9059 92.0516 52.7793 94.3613L53.4644 95.0387C55.6687 92.8581 58.2737 91.871 60.9886 91.871C67.7047 91.871 71.5314 97.4323 71.5314 102.381C71.5314 108.942 65.8948 112.897 60.9886 112.897C58.3383 112.897 55.6557 111.845 53.7812 110.032L53.1542 110.716C55.2614 112.8 58.0086 114.065 60.9821 114.065H72.8307V90.8452H60.9821H60.9886Z" fill="#EAE3D6"/>
<path d="M160.128 34.4581H159.139V102.439C159.139 108.265 154.433 112.903 148.609 112.903C142.785 112.903 138.079 108.148 138.079 102.452C138.079 96.7548 132.979 90.8516 126.528 90.8516C120.504 90.8516 115.067 96.1742 115.067 102.452C115.067 109.923 108.5 112.903 103.607 112.903V90.8516H89.4765V91.8774H91.8229C96.7938 91.8774 102.359 95.6903 102.359 102.31C102.372 108.781 97.0653 112.903 91.8229 112.903C86.3027 112.903 81.293 108.529 81.293 102.31V0H80.3105V114.123H160.135V34.4581H160.128ZM116.024 102.445C116.153 96.6968 121.098 91.8258 126.548 91.8258C132.275 91.8258 137.09 96.6322 137.09 102.445C137.09 108.258 131.951 112.852 126.548 112.852C121.144 112.852 116.024 108.297 116.024 102.445Z" fill="#EAE3D6"/>
<path d="M165.842 16.6128H164.859V114.123H165.842V16.6128Z" fill="#EAE3D6"/>
<path d="M11.5142 85.5033C11.5142 86.3356 10.8419 87.0065 10.0145 87.013C9.18072 87.013 8.50846 86.342 8.502 85.5162C8.49553 84.6904 9.17426 84.013 10.0016 84.0066C10.8355 84.0066 11.5077 84.6775 11.5142 85.5033Z" fill="#EAE3D6"/>
<path d="M15.735 85.4968C15.735 86.329 15.0627 87 14.2353 87.0064C13.4014 87.0064 12.7292 86.3355 12.7227 85.5097C12.7227 84.6774 13.395 84.0064 14.2224 84C15.0562 84 15.7285 84.671 15.735 85.4968Z" fill="#EAE3D6"/>
<path d="M44.9066 52.1677V102.368C44.9066 108.206 40.2977 112.871 34.4801 112.871C28.6625 112.871 23.8662 108.342 23.8468 102.387V90.8516H11.8689C5.79925 90.8516 0.324219 95.5677 0.324219 102.387C0.324219 110.077 6.25173 114.116 11.8689 114.116H45.902V52.1677H44.913H44.9066ZM22.373 102.387C22.3924 108.2 17.6865 112.877 11.8689 112.897C6.4004 112.897 1.30675 108.535 1.30675 102.381C1.30675 96.5871 6.33576 91.9226 11.8689 91.9226C16.9949 91.9226 22.373 95.9161 22.373 102.381" fill="#EAE3D6"/>
<path d="M96.9553 117.116C96.1214 117.116 95.4492 117.787 95.4492 118.619C95.4492 119.452 96.1214 120.123 96.9553 120.123C97.7892 120.123 98.4614 119.452 98.4614 118.619C98.4614 117.787 97.7892 117.116 96.9553 117.116Z" fill="#EAE3D6"/>
<path d="M15.4363 142.052C14.9515 142.052 14.8028 141.923 14.6477 141.51L9.0951 125.981H8.10611L2.48241 141.51C2.25616 142.142 1.87479 142.052 0.666016 142.052V142.665H5.3589V142.052H3.71057C3.33566 142.052 3.24516 141.858 3.24516 141.71C3.25162 141.561 3.29041 141.51 3.36798 141.271L5.11326 136.342H11.797L13.5423 141.271C13.7556 141.916 13.5229 142.058 13.1997 142.058H11.5514V142.671H16.4447V142.058H15.4363V142.052ZM5.3589 135.697L8.45516 126.987H8.50688L11.5772 135.697H5.3589Z" fill="#EAE3D6"/>
<path d="M17.3828 125.981V126.594H19.1022C19.4448 126.594 19.5224 126.806 19.5224 127.058V141.581C19.5224 141.929 19.3608 142.045 19.1022 142.045H17.3828V142.658H27.1176C27.3891 142.658 27.583 142.568 27.583 142.219V139.058H26.8978V141.116C26.8978 141.697 26.6586 142 25.967 142H20.5114V127.058C20.5114 126.684 20.6924 126.594 20.9509 126.594H22.6445V125.981H17.3828Z" fill="#EAE3D6"/>
<path d="M36.9297 142.052V142.665H41.8941V142.052H40.2005C39.8967 142.052 39.7804 141.903 39.7804 141.587V127.258H39.8321L46.6646 142.665H47.2075L54.0659 127.206H54.1176V141.587C54.1176 141.871 54.0206 142.052 53.678 142.052H52.0039V142.665H57.2397V142.052H55.5203C55.307 142.052 55.1001 141.981 55.1001 141.587V127.065C55.1001 126.652 55.2747 126.6 55.5203 126.6H57.2397V125.987H53.872L47.1106 141.219H47.0395L40.7241 126.961C40.388 126.226 40.1812 125.981 39.1728 125.981H36.9362V126.594H38.6298C38.9659 126.594 39.0693 126.768 39.0693 127.058V141.581C39.0693 141.91 38.9271 142.045 38.6298 142.045H36.9362L36.9297 142.052Z" fill="#EAE3D6"/>
<path d="M59.1016 126.594V125.981H64.3375V126.594H62.6698C62.366 126.594 62.2302 126.703 62.2302 127.058V137.29C62.2302 141.387 65.0291 142.148 67.3174 142.148C69.9159 142.148 72.159 141.148 72.159 137.264V127.058C72.159 126.819 72.0167 126.594 71.7388 126.594H70.0194V125.981H75.0096V126.594H73.316C72.967 126.594 72.8958 126.774 72.8958 127.058V137.387C72.8958 141.832 70.0194 142.884 67.2204 142.884C64.2664 142.884 61.2477 141.819 61.2477 137.387V127.058C61.2477 126.723 61.1249 126.594 60.8275 126.594H59.1081H59.1016Z" fill="#EAE3D6"/>
<path d="M76.9948 125.981V126.594H78.6884C78.9469 126.594 79.1279 126.684 79.1279 127.058V142.761C79.1279 144.374 78.4492 145.555 76.2773 145.555V146.194C78.8047 146.194 80.1105 144.961 80.1105 142.658V127.052C80.1105 126.671 80.2656 126.587 80.5306 126.587H82.2501V125.974H76.9883L76.9948 125.981Z" fill="#EAE3D6"/>
<path d="M97.3426 142.052C96.8578 142.052 96.7092 141.923 96.554 141.51L91.0014 125.981H90.0124L84.3887 141.51C84.1689 142.142 83.7811 142.052 82.5723 142.052V142.665H87.2652V142.052H85.6169C85.242 142.052 85.1515 141.858 85.1515 141.71C85.1579 141.561 85.1967 141.51 85.2743 141.271L87.0196 136.342H93.7034L95.4487 141.271C95.662 141.916 95.4293 142.058 95.1061 142.058H93.4577V142.671H98.351V142.058H97.3426V142.052ZM87.2652 135.697L90.3615 126.987H90.4132L93.4836 135.697H87.2652Z" fill="#EAE3D6"/>
<path d="M105.209 125.981H99.6309V126.594H101.35C101.68 126.594 101.77 126.774 101.77 127.058V141.581C101.77 141.923 101.628 142.045 101.35 142.045H99.6309V142.658H105.112C110.775 142.658 114.304 139.168 114.304 133.923C114.304 128.065 109.818 125.974 105.209 125.974M104.964 142.026H102.753V126.619H105.06C110.09 126.619 113.27 129.116 113.27 134.026C113.27 138.935 110.264 142.026 104.964 142.026Z" fill="#EAE3D6"/>
<path d="M116.264 125.981V126.594H117.983C118.261 126.594 118.403 126.716 118.403 127.058V141.581C118.403 141.877 118.293 142.045 117.983 142.045H116.264V142.658H121.525V142.045H119.832C119.476 142.045 119.392 141.858 119.392 141.581V127.058C119.392 126.613 119.67 126.594 119.832 126.594H121.525V125.981H116.264Z" fill="#EAE3D6"/>
<path d="M123.018 125.981V126.594H124.738C125.08 126.594 125.158 126.806 125.158 127.058V141.581C125.158 141.929 124.996 142.045 124.738 142.045H123.018V142.658H132.753C133.025 142.658 133.219 142.568 133.219 142.219V139.052H132.533V141.11C132.533 141.69 132.294 141.994 131.603 141.994H126.147V127.052C126.147 126.677 126.328 126.587 126.587 126.587H128.28V125.974H123.018V125.981Z" fill="#EAE3D6"/>
<path d="M149.087 142.052C148.602 142.052 148.453 141.923 148.298 141.51L142.745 125.981H141.756L136.133 141.51C135.913 142.142 135.525 142.052 134.316 142.052V142.665H139.009V142.052H137.361C136.986 142.052 136.895 141.858 136.895 141.71C136.902 141.561 136.941 141.51 137.018 141.271L138.764 136.342H145.447L147.193 141.271C147.406 141.916 147.173 142.058 146.85 142.058H145.202V142.671H150.095V142.058H149.087V142.052ZM139.009 135.697L142.105 126.987H142.157L145.228 135.697H139.009Z" fill="#EAE3D6"/>
<path d="M151.156 142.052V142.665H156.418V142.052H154.724C154.453 142.052 154.285 141.955 154.285 141.587V134.445H164.879V141.587C164.879 141.935 164.731 142.052 164.44 142.052H162.746V142.665H168.008V142.052H166.288C165.939 142.052 165.868 141.839 165.868 141.587V127.065C165.868 126.658 166.069 126.6 166.288 126.6H168.008V125.987H162.746V126.6H164.44C164.659 126.6 164.879 126.665 164.879 127.065V133.813H154.285V127.065C154.285 126.697 154.453 126.6 154.724 126.6H156.418V125.987H151.156V126.6H152.876C153.082 126.6 153.296 126.658 153.296 127.065V141.587C153.296 141.923 153.147 142.052 152.876 142.052H151.156Z" fill="#EAE3D6"/>
<path d="M35.2047 135.206H29.2578V136.013H35.2047V135.206Z" fill="#EAE3D6"/>
<path d="M5.32104 159.368C5.32104 160.832 4.39669 161.69 2.96814 161.69C1.53959 161.69 0.615234 160.819 0.615234 159.465C0.615234 158.581 1.06125 157.839 1.84986 157.019L2.17306 156.677L2.13428 156.652V155.458L2.23124 155.387C4.4484 156.826 5.31458 157.923 5.31458 159.361L5.32104 159.368ZM4.62939 159.368C4.62939 158.632 4.09934 157.987 2.75483 157.065L2.34759 157.471C1.63009 158.174 1.31335 158.703 1.31335 159.265C1.31335 160.09 1.99207 160.606 2.96814 160.606C3.94421 160.606 4.62939 160.148 4.62939 159.374V159.368ZM3.74382 154.239H3.62101L2.96814 153.587L2.30234 154.239H2.19246L1.46848 153.548L2.19246 152.858H2.30234L2.96814 153.51L3.62101 152.858H3.74382L4.4484 153.548L3.74382 154.239Z" fill="#EAE3D6"/>
<path d="M6.62031 151.529C6.49749 151.323 6.42639 151.123 6.42639 150.923C6.42639 150.232 7.01462 149.658 7.74505 149.658C8.26217 149.658 8.54659 149.929 8.54659 150.484V150.781H8.06825V150.671C8.06825 150.413 7.93251 150.277 7.63516 150.277C7.24086 150.277 6.89826 150.548 6.89826 150.858C6.89826 151.09 7.05986 151.316 7.33135 151.523H8.74697V152.148H6.14844V151.523H6.61385L6.62031 151.529ZM7.86787 153.129V161.555H7.04047V153.129H7.86787Z" fill="#EAE3D6"/>
<path d="M7.64258 164.239V163.639L7.73954 163.568C8.29544 163.8 8.74793 163.91 9.20687 163.91C10.5966 163.91 11.6567 162.555 11.6567 160.626C11.6567 160.123 11.4692 159.103 11.1784 157.981L11.2171 157.91H12.0058L12.2772 159.226C12.4712 160.135 12.9818 160.465 14.0742 160.465V161.29L13.8286 161.548C13.1499 161.548 12.6715 161.4 12.3613 161.032L12.3225 161.045C12.1609 163.381 10.965 165.006 9.51068 165.006C8.81903 165.006 8.20495 164.697 7.64904 164.232L7.64258 164.239Z" fill="#EAE3D6"/>
<path d="M14.0737 160.471H15.6122V161.31L15.3665 161.555H13.8281V160.703L14.0737 160.471Z" fill="#EAE3D6"/>
<path d="M15.6108 160.471H17.1493V161.31L16.9036 161.555H15.3652V160.703L15.6108 160.471Z" fill="#EAE3D6"/>
<path d="M17.1499 160.471H18.6883V161.31L18.4427 161.555H16.9043V160.703L17.1499 160.471Z" fill="#EAE3D6"/>
<path d="M18.6831 160.471H20.2215V161.31L19.9759 161.555H18.4375V160.703L18.6831 160.471Z" fill="#EAE3D6"/>
<path d="M20.2202 160.471H21.7586V161.31L21.513 161.555H19.9746V160.703L20.2202 160.471Z" fill="#EAE3D6"/>
<path d="M21.7594 160.471H23.2978V161.31L23.0522 161.555H21.5137V160.703L21.7594 160.471Z" fill="#EAE3D6"/>
<path d="M23.2983 160.471H24.8368V161.31L24.5911 161.555H23.0527V160.703L23.2983 160.471Z" fill="#EAE3D6"/>
<path d="M24.8354 160.471H26.3739V161.31L26.1282 161.555H24.5898V160.703L24.8354 160.471Z" fill="#EAE3D6"/>
<path d="M26.3686 160.471H27.9071V161.31L27.6614 161.555H26.123V160.703L26.3686 160.471Z" fill="#EAE3D6"/>
<path d="M27.9058 160.471H29.4443V161.31L29.1987 161.555H27.6602V160.703L27.9058 160.471Z" fill="#EAE3D6"/>
<path d="M29.4448 160.471H30.9832V161.31L30.7376 161.555H29.1992V160.703L29.4448 160.471Z" fill="#EAE3D6"/>
<path d="M30.984 160.471H32.5224V161.31L32.2768 161.555H30.7383V160.703L30.984 160.471Z" fill="#EAE3D6"/>
<path d="M39.722 160.471V161.323L39.4893 161.555C38.7265 161.555 38.2676 161.271 37.925 160.716L37.8022 161.665L35.9147 161.419C35.0614 161.31 34.4603 161.052 34.1371 160.606C33.8268 161.258 33.2257 161.555 32.2754 161.555V160.703L32.5211 160.471C33.1093 160.471 33.5553 160.348 33.8785 160.09C33.8268 159.903 33.7945 159.684 33.7945 159.452C33.7945 158.232 34.8287 157.2 36.7033 156.684L37.0459 156.587C37.2204 156.529 37.3562 156.613 37.4143 156.774L38.2999 159.445C38.5585 160.206 38.9269 160.465 39.7285 160.465L39.722 160.471ZM37.5178 159.819L36.8908 157.961C36.8197 157.8 36.7421 157.768 36.5805 157.813C35.1002 158.181 34.4861 158.626 34.4861 159.29C34.4861 159.903 35.0162 160.213 36.0504 160.348L37.8474 160.568C37.7246 160.348 37.6147 160.103 37.5242 159.819H37.5178Z" fill="#EAE3D6"/>
<path d="M39.7301 160.471H41.2685V161.31L41.0229 161.555H39.4844V160.703L39.7301 160.471Z" fill="#EAE3D6"/>
<path d="M41.2672 160.471H42.8056V161.31L42.56 161.555H41.0215V160.703L41.2672 160.471Z" fill="#EAE3D6"/>
<path d="M42.8004 160.471H44.3388V161.31L44.0932 161.555H42.5547V160.703L42.8004 160.471Z" fill="#EAE3D6"/>
<path d="M48.2804 161.31L48.0348 161.555H48.0219C47.0846 161.555 46.4705 161.245 46.1602 160.581C45.6819 161.219 44.9903 161.555 44.0918 161.555V160.703L44.3374 160.471C44.9773 160.471 45.5203 160.323 45.9663 159.994C45.9146 159.723 45.8694 159.426 45.8694 159.084V151.445H46.7097V159.084C46.7097 160.032 47.188 160.471 48.2158 160.471H48.2675V161.31H48.2804Z" fill="#EAE3D6"/>
<path d="M48.2866 160.471C49.3338 160.471 49.838 160.065 49.838 159.116V151.452H50.6783V159.116C50.6783 160.69 49.8509 161.561 48.4353 161.561H48.041V160.71L48.2866 160.477V160.471Z" fill="#EAE3D6"/>
<path d="M62.1587 160.471V161.31L61.926 161.555C61.0857 161.555 60.5427 161.258 60.1355 160.581C59.6054 161.329 58.7328 161.69 57.4852 161.69C55.9468 161.69 55.3262 161.245 55.3262 160.019V159.542H55.9791V159.8C55.9791 160.387 56.4574 160.587 57.802 160.587C58.6746 160.587 59.3662 160.413 59.8834 160.032C59.7864 159.813 59.7218 159.6 59.6377 159.355L58.4548 155.381V155.271H59.2951L60.4522 159.135C60.7108 160.032 61.1568 160.465 62.1652 160.465L62.1587 160.471Z" fill="#EAE3D6"/>
<path d="M62.1655 160.471H63.7039V161.31L63.4583 161.555H61.9199V160.703L62.1655 160.471Z" fill="#EAE3D6"/>
<path d="M63.7047 160.471H65.2431V161.31L64.9975 161.555H63.459V160.703L63.7047 160.471Z" fill="#EAE3D6"/>
<path d="M65.2417 160.471H66.7801V161.31L66.5345 161.555H64.9961V160.703L65.2417 160.471Z" fill="#EAE3D6"/>
<path d="M66.7808 160.471H68.3193V161.31L68.0737 161.555H66.5352V160.703L66.7808 160.471Z" fill="#EAE3D6"/>
<path d="M68.3198 160.471H69.8583V161.31L69.6126 161.555H68.0742V160.703L68.3198 160.471Z" fill="#EAE3D6"/>
<path d="M69.8512 160.471H71.3896V161.31L71.144 161.555H69.6055V160.703L69.8512 160.471Z" fill="#EAE3D6"/>
<path d="M71.3901 160.471H72.9286V161.31L72.6829 161.555H71.1445V160.703L71.3901 160.471Z" fill="#EAE3D6"/>
<path d="M72.9292 160.471H74.4676V161.31L74.222 161.555H72.6836V160.703L72.9292 160.471Z" fill="#EAE3D6"/>
<path d="M74.4663 160.471H76.0047V161.31L75.7591 161.555H74.2207V160.703L74.4663 160.471Z" fill="#EAE3D6"/>
<path d="M76.0055 160.471H77.5439V161.31L77.2983 161.555H75.7598V160.703L76.0055 160.471Z" fill="#EAE3D6"/>
<path d="M77.5366 160.471H79.075V161.31L78.8294 161.555H77.291V160.703L77.5366 160.471Z" fill="#EAE3D6"/>
<path d="M87.7052 161.31L87.4725 161.555H87.4596C86.0892 161.555 85.4622 160.903 85.4622 159.49V159.161L84.2535 160.084C82.7732 161.206 81.9329 161.548 80.2716 161.548H78.8301V160.697L79.0758 160.465H80.2716C81.9006 160.465 82.7344 160.232 84.2017 159.31L85.3976 158.523V158.497L82.3918 157.735C81.4157 157.49 81.196 157.452 80.9503 157.452C80.5948 157.452 80.4203 157.626 80.4203 158.006V158.413H79.7803V157.452C79.7803 156.69 80.1229 156.381 80.8017 156.381C81.183 156.381 81.6291 156.503 82.6374 156.761L84.9451 157.374C85.7208 157.581 86.1022 157.632 86.7809 157.632H87.0524V158.639H86.1539V159.29C86.1539 160.226 86.4965 160.471 87.66 160.471H87.6988V161.31H87.7052ZM82.9736 162.839L83.6782 163.529L82.9736 164.219H82.8637L82.1397 163.529L82.8637 162.839H82.9736Z" fill="#EAE3D6"/>
<path d="M87.7184 160.471H89.2568V161.31L89.0112 161.555H87.4727V160.703L87.7184 160.471Z" fill="#EAE3D6"/>
<path d="M89.2495 160.471H90.7879V161.31L90.5423 161.555H89.0039V160.703L89.2495 160.471Z" fill="#EAE3D6"/>
<path d="M90.7887 160.471H92.3271V161.31L92.0815 161.555H90.543V160.703L90.7887 160.471Z" fill="#EAE3D6"/>
<path d="M94.1763 160.942C93.8208 161.361 93.252 161.555 92.4504 161.555H92.082V160.729L92.3276 160.471H92.4634C93.6204 160.471 94.0018 160.187 94.0018 159.232V158.323H94.6935V159.206C94.6935 159.574 94.6547 159.897 94.5836 160.168C95.0167 160.426 95.6307 160.587 96.2707 160.587C97.111 160.587 97.3696 160.277 97.3696 159.232V158.323H98.0612V159.206C98.0612 159.6 98.0354 159.942 97.9642 160.239C98.2228 160.471 98.5654 160.606 99.0114 160.606C99.716 160.606 99.9358 160.31 99.9358 159.239V157.923H100.627V159.213C100.627 159.568 100.601 159.877 100.543 160.161C100.989 160.348 101.629 160.471 102.295 160.471V161.297L102.049 161.555C101.397 161.555 100.757 161.381 100.259 161.026C100 161.471 99.5932 161.69 99.005 161.69C98.4167 161.69 97.9449 161.471 97.6217 161.077C97.3372 161.484 96.8718 161.69 96.1414 161.69C95.411 161.69 94.6741 161.432 94.1699 160.942H94.1763Z" fill="#EAE3D6"/>
<path d="M102.314 160.471H103.852V161.31L103.607 161.555H102.068V160.703L102.314 160.471Z" fill="#EAE3D6"/>
<path d="M103.846 160.471H105.385V161.31L105.139 161.555H103.6V160.703L103.846 160.471Z" fill="#EAE3D6"/>
<path d="M105.139 161.555V160.716L105.385 160.471C106.212 160.471 106.606 160.174 106.949 159.439L107.233 158.858C108.048 157.174 108.662 156.568 109.599 156.568C110.821 156.568 111.558 157.561 111.558 159.213C111.558 159.826 111.364 160.555 111.189 161.129L111.118 161.348C111.034 161.619 110.834 161.716 110.588 161.645L107.052 160.684C106.619 161.31 106.018 161.568 105.133 161.568L105.139 161.555ZM110.743 160.277C110.815 160.019 110.866 159.665 110.866 159.355C110.866 158.284 110.375 157.645 109.535 157.645C108.817 157.645 108.313 158.161 107.757 159.381L107.608 159.703L110.407 160.452C110.595 160.503 110.705 160.452 110.75 160.277H110.743Z" fill="#EAE3D6"/>
<path d="M117.38 160.658C117.38 163.142 116.036 165.013 114.239 165.013C113.437 165.013 112.785 164.729 112.08 164.239V163.639L112.177 163.568C112.901 163.813 113.412 163.91 113.929 163.91C115.409 163.91 116.54 162.826 116.676 161.181L116.65 161.155C116.146 161.51 115.577 161.684 114.911 161.684C113.554 161.684 112.72 160.948 112.72 159.555C112.72 158.161 113.767 156.555 115.028 156.555C116.43 156.555 117.38 158.277 117.38 160.652V160.658ZM114.956 160.587C115.538 160.587 116.101 160.503 116.644 160.277C116.482 158.787 115.771 157.645 114.866 157.645C114.006 157.645 113.412 158.652 113.412 159.432C113.412 160.213 113.98 160.587 114.963 160.587H114.956Z" fill="#EAE3D6"/>
<path d="M119.715 164.239V163.639L119.812 163.568C120.368 163.8 120.82 163.91 121.279 163.91C122.669 163.91 123.729 162.555 123.729 160.626C123.729 160.123 123.541 159.103 123.251 157.981L123.289 157.91H124.078L124.349 159.226C124.543 160.135 125.054 160.465 126.146 160.465V161.29L125.901 161.548C125.222 161.548 124.744 161.4 124.433 161.032L124.395 161.045C124.233 163.381 123.037 165.006 121.583 165.006C120.891 165.006 120.277 164.697 119.721 164.232L119.715 164.239ZM123.425 155.161L124.13 155.852L123.425 156.542H123.315L122.598 155.852L123.315 155.161H123.425Z" fill="#EAE3D6"/>
<path d="M126.154 160.471H127.692V161.31L127.447 161.555H125.908V160.703L126.154 160.471Z" fill="#EAE3D6"/>
<path d="M126.154 160.471H127.692V161.31L127.447 161.555H125.908V160.703L126.154 160.471Z" fill="#EAE3D6"/>
<path d="M127.685 160.471H129.223V161.31L128.978 161.555H127.439V160.703L127.685 160.471Z" fill="#EAE3D6"/>
<path d="M129.225 160.471H130.763V161.31L130.518 161.555H128.979V160.703L129.225 160.471Z" fill="#EAE3D6"/>
<path d="M130.762 160.471H132.301V161.31L132.055 161.555H130.516V160.703L130.762 160.471Z" fill="#EAE3D6"/>
<path d="M132.3 160.471H133.839V161.31L133.593 161.555H132.055V160.703L132.3 160.471Z" fill="#EAE3D6"/>
<path d="M133.839 160.471H135.378V161.31L135.132 161.555H133.594V160.703L133.839 160.471Z" fill="#EAE3D6"/>
<path d="M135.37 160.471H136.909V161.31L136.663 161.555H135.125V160.703L135.37 160.471Z" fill="#EAE3D6"/>
<path d="M136.91 160.471H138.448V161.31L138.202 161.555H136.664V160.703L136.91 160.471Z" fill="#EAE3D6"/>
<path d="M138.447 160.471H139.985V161.31L139.739 161.555H138.201V160.703L138.447 160.471Z" fill="#EAE3D6"/>
<path d="M139.986 160.471H141.524V161.31L141.279 161.555H139.74V160.703L139.986 160.471Z" fill="#EAE3D6"/>
<path d="M141.525 160.471H143.063V161.31L142.818 161.555H141.279V160.703L141.525 160.471Z" fill="#EAE3D6"/>
<path d="M143.062 160.471H144.6V161.31L144.355 161.555H142.816V160.703L143.062 160.471Z" fill="#EAE3D6"/>
<path d="M145.941 155.181L147.001 156.252C148.39 157.594 148.888 158.394 148.888 159.387C148.888 160.742 147.977 161.555 146.471 161.555H144.35V160.703L144.596 160.471H146.471C147.557 160.471 148.197 160.103 148.197 159.387C148.197 158.845 147.912 158.439 146.962 157.529L145.087 155.755V154.684L150.769 151.348H150.866V152.335L145.947 155.187L145.941 155.181Z" fill="#EAE3D6"/>
<path d="M148.912 164.239V163.639L149.009 163.568C149.565 163.8 150.017 163.91 150.476 163.91C151.866 163.91 152.926 162.555 152.926 160.626C152.926 160.123 152.739 159.103 152.448 157.981L152.487 157.91H153.275L153.547 159.226C153.741 160.135 154.251 160.465 155.344 160.465V161.29L155.098 161.548C154.419 161.548 153.941 161.4 153.631 161.032L153.592 161.045C153.43 163.381 152.234 165.006 150.78 165.006C150.088 165.006 149.474 164.697 148.918 164.232L148.912 164.239Z" fill="#EAE3D6"/>
<path d="M155.346 160.471H156.885V161.31L156.639 161.555H155.1V160.703L155.346 160.471Z" fill="#EAE3D6"/>
<path d="M156.882 160.471H158.421V161.31L158.175 161.555H156.637V160.703L156.882 160.471Z" fill="#EAE3D6"/>
<path d="M158.415 160.471H159.954V161.31L159.708 161.555H158.17V160.703L158.415 160.471Z" fill="#EAE3D6"/>
<path d="M159.707 161.555V160.716L159.953 160.471C160.781 160.471 161.175 160.174 161.517 159.439L161.802 158.858C162.616 157.174 163.23 156.568 164.168 156.568C165.389 156.568 166.126 157.561 166.126 159.213C166.126 159.826 165.932 160.555 165.758 161.129L165.687 161.348C165.603 161.619 165.402 161.716 165.157 161.645L161.621 160.684C161.188 161.31 160.587 161.568 159.701 161.568L159.707 161.555ZM165.312 160.277C165.383 160.019 165.435 159.665 165.435 159.355C165.435 158.284 164.943 157.645 164.103 157.645C163.386 157.645 162.881 158.161 162.325 159.381L162.177 159.703L164.976 160.452C165.163 160.503 165.273 160.452 165.318 160.277H165.312Z" fill="#EAE3D6"/>
<path d="M6.80015 178.271H7.48534V180.026C7.48534 180.297 7.35606 180.394 7.10396 180.458C6.60623 180.6 5.76591 180.748 4.6541 180.748C1.83578 180.748 0 179.123 0 176.258C0 173.394 1.96506 171.587 4.70581 171.587C5.64956 171.587 6.42524 171.716 6.9359 171.877C7.188 171.955 7.31728 172.032 7.31728 172.31V173.961H6.63209V173.477C6.63209 173.11 6.56745 172.832 6.35414 172.652C6.07618 172.387 5.53967 172.258 4.67349 172.258C2.68257 172.258 1.20877 173.516 1.20877 176.2C1.20877 178.884 2.66318 180.084 4.7252 180.084C5.77237 180.084 6.30889 179.955 6.57391 179.677C6.74198 179.484 6.79369 179.232 6.79369 178.865V178.277L6.80015 178.271Z" fill="#EAE3D6"/>
<path d="M9.79945 177.394C9.79945 179.226 10.588 179.987 12.12 179.987C12.7212 179.987 13.3288 179.858 13.652 179.684H13.7425V180.348C13.4257 180.529 12.6953 180.742 11.7774 180.742C9.72835 180.742 8.70703 179.523 8.70703 177.523C8.70703 175.523 9.8447 174.226 11.6029 174.226C13.206 174.226 13.9881 175.271 13.9881 176.555C13.9881 176.787 13.9881 177.065 13.9622 177.277H9.79299V177.394H9.79945ZM12.6177 176.703C12.8375 176.703 12.9345 176.6 12.9345 176.348C12.9345 175.497 12.4884 174.858 11.5576 174.858C10.4975 174.858 9.94166 175.632 9.83823 176.703H12.6177Z" fill="#EAE3D6"/>
<path d="M15.1836 180.039H15.7976C15.9786 180.039 16.0756 179.935 16.0756 179.735V175.232C16.0756 175.026 15.9851 174.929 15.7976 174.929H15.1836V174.355H16.8254C17.0193 174.355 17.1034 174.445 17.1034 174.645V175.077H17.1551C17.5882 174.645 18.254 174.226 19.146 174.226C20.4065 174.226 20.9818 174.852 20.9818 176.058V179.735C20.9818 179.929 21.0594 180.039 21.2597 180.039H21.8738V180.613H19.0684V180.039H19.6825C19.8764 180.039 19.9605 179.935 19.9605 179.735V176.29C19.9605 175.387 19.5532 175.019 18.7388 175.019C18.0277 175.019 17.4654 175.348 17.0969 175.716V179.735C17.0969 179.929 17.1745 180.039 17.3749 180.039H17.9889V180.613H15.1836V180.039Z" fill="#EAE3D6"/>
<path d="M23.5425 174.974H22.6504V174.465C23.0965 174.4 23.3874 174.284 23.5813 174.045C23.814 173.781 23.9109 173.348 23.9756 172.723H24.5638V174.361H26.0053V174.974H24.5638V179.032C24.5638 179.768 24.8288 180.039 25.4946 180.039C25.7338 180.039 25.9019 180 26.0828 179.935H26.1733V180.574C25.9794 180.652 25.611 180.742 25.1262 180.742C24.0402 180.742 23.536 180.31 23.536 179.142V174.968L23.5425 174.974Z" fill="#EAE3D6"/>
<path d="M28.1119 177.394C28.1119 179.226 28.9005 179.987 30.4325 179.987C31.0336 179.987 31.6413 179.858 31.9645 179.684H32.055V180.348C31.7382 180.529 31.0078 180.742 30.0899 180.742C28.0408 180.742 27.0195 179.523 27.0195 177.523C27.0195 175.523 28.1572 174.226 29.9154 174.226C31.5185 174.226 32.3006 175.271 32.3006 176.555C32.3006 176.787 32.3006 177.065 32.2747 177.277H28.1054V177.394H28.1119ZM30.9367 176.703C31.1565 176.703 31.2534 176.6 31.2534 176.348C31.2534 175.497 30.8074 174.858 29.8766 174.858C28.8165 174.858 28.2606 175.632 28.1572 176.703H30.9367Z" fill="#EAE3D6"/>
<path d="M33.4961 180.039H34.1101C34.2911 180.039 34.3881 179.935 34.3881 179.735V175.232C34.3881 175.026 34.2976 174.929 34.1101 174.929H33.4961V174.355H35.1379C35.3318 174.355 35.4159 174.445 35.4159 174.645V175.258H35.4676C35.7326 174.735 36.295 174.226 37.0383 174.226C37.2193 174.226 37.4197 174.239 37.5619 174.277V175.194H37.4714C37.3292 175.168 37.1676 175.142 37.0125 175.142C36.3273 175.142 35.7649 175.419 35.4094 175.929V179.735C35.4094 179.929 35.487 180.039 35.6874 180.039H36.4113V180.613H33.4961V180.039Z" fill="#EAE3D6"/>
<path d="M41.2402 178.284C41.2402 177.052 42.1581 176.239 43.1406 175.755L43.0501 175.665C42.4231 175.052 41.9383 174.445 41.9383 173.529C41.9383 172.258 43.063 171.581 44.6144 171.581C45.3513 171.581 46.0559 171.723 46.3209 171.826C46.5601 171.903 46.6894 171.968 46.6894 172.245V173.735H46.0106V173.394C46.0106 173.039 45.9331 172.723 45.7198 172.542C45.4935 172.348 45.1186 172.239 44.5368 172.239C43.6707 172.239 43.0437 172.658 43.0437 173.445C43.0437 174.103 43.3862 174.516 43.9228 175.045L47.3164 178.355C47.6331 177.794 47.8141 177.161 47.8141 176.535C47.8141 176.284 47.7236 176.181 47.4715 176.181H46.7863V175.606H49.5788V176.181H48.9388C48.6609 176.181 48.5575 176.297 48.5445 176.535C48.4799 177.335 48.2149 178.135 47.7947 178.826L48.3571 179.361C48.829 179.819 49.3784 180 49.9731 180.032V180.606H49.262C48.3183 180.606 47.8076 180.303 47.2453 179.755L47.1289 179.652C46.4437 180.323 45.5258 180.735 44.4011 180.735C42.4877 180.735 41.2402 179.819 41.2402 178.277V178.284ZM46.67 179.2L43.5349 176.135C42.7722 176.658 42.3714 177.303 42.3714 178.135C42.3714 179.394 43.3022 180.071 44.6532 180.071C45.4289 180.071 46.1205 179.729 46.67 179.194V179.2Z" fill="#EAE3D6"/>
<path d="M53.9355 180.039H54.6853C54.8793 180.039 54.9633 179.935 54.9633 179.735V172.587C54.9633 172.394 54.8857 172.284 54.6853 172.284H53.9355V171.71H55.5774C56.2173 171.71 56.3789 171.865 56.5858 172.348L59.5075 179.039H59.5463L62.746 171.71H65.0924V172.284H64.3298C64.1488 172.284 64.0712 172.387 64.0712 172.587V179.735C64.0712 179.929 64.1488 180.039 64.3298 180.039H65.0924V180.613H61.9444V180.039H62.6943C62.8753 180.039 62.9722 179.935 62.9722 179.735V172.903H62.9334L59.5786 180.613H59.055L55.7132 172.968H55.6873V179.735C55.6873 179.929 55.7648 180.039 55.9458 180.039H56.6956V180.613H53.942V180.039H53.9355Z" fill="#EAE3D6"/>
<path d="M66.2891 177.535C66.2891 175.523 67.4526 174.226 69.2755 174.226C71.0984 174.226 72.2425 175.458 72.2425 177.406C72.2425 179.355 71.0596 180.742 69.2496 180.742C67.4397 180.742 66.2891 179.458 66.2891 177.535ZM71.1436 177.458C71.1436 175.768 70.4584 174.852 69.2561 174.852C68.0538 174.852 67.3945 175.794 67.3945 177.484C67.3945 179.174 68.0667 180.116 69.282 180.116C70.4972 180.116 71.1436 179.148 71.1436 177.458Z" fill="#EAE3D6"/>
<path d="M73.3926 178.806H74.052V179.097C74.052 179.439 74.0907 179.671 74.233 179.832C74.414 180.013 74.7436 180.123 75.4029 180.123C76.5018 180.123 76.8832 179.729 76.8832 179.039C76.8832 178.303 76.1334 178.058 75.4029 177.858C74.3946 177.568 73.5025 177.219 73.5025 175.948C73.5025 174.903 74.3041 174.232 75.836 174.232C76.56 174.232 77.1353 174.361 77.452 174.477C77.633 174.555 77.7041 174.645 77.7041 174.845V176.065H77.0448V175.8C77.0448 175.497 76.9802 175.265 76.8121 175.103C76.6182 174.935 76.2885 174.852 75.752 174.852C74.8988 174.852 74.4657 175.194 74.4657 175.768C74.4657 176.477 75.1379 176.735 75.8037 176.929C76.7992 177.232 77.8464 177.542 77.8464 178.8C77.8464 179.994 76.9802 180.735 75.3383 180.735C74.6014 180.735 74.0132 180.606 73.6447 180.458C73.4637 180.406 73.3926 180.303 73.3926 180.103V178.794V178.806Z" fill="#EAE3D6"/>
<path d="M82.3832 182.981H83.1201C83.314 182.981 83.3981 182.877 83.3981 182.677V174.994H82.5189C80.9029 174.994 80.0949 175.858 80.0949 177.613C80.0949 179.368 80.9353 180.103 82.3638 180.103H82.7193V180.613C82.5642 180.665 82.1828 180.729 81.7885 180.729C80.0303 180.729 78.9961 179.561 78.9961 177.742C78.9961 175.606 80.2565 174.348 82.422 174.348H84.4258V182.677C84.4258 182.871 84.5034 182.981 84.7038 182.981H85.3179V183.555H82.3897V182.981H82.3832Z" fill="#EAE3D6"/>
<path d="M86.8385 175.232C86.8385 175.026 86.748 174.929 86.5606 174.929H85.9336V174.355H87.5883C87.7693 174.355 87.8663 174.445 87.8663 174.645V178.665C87.8663 179.581 88.2477 179.948 89.0751 179.948C89.7732 179.948 90.3226 179.619 90.704 179.258V175.239C90.704 175.032 90.6135 174.935 90.426 174.935H89.812V174.361H91.4538C91.6348 174.361 91.7318 174.452 91.7318 174.652V179.742C91.7318 179.935 91.8094 180.045 91.9968 180.045H92.6238V180.619H90.969C90.788 180.619 90.704 180.516 90.704 180.316V179.884H90.6523C90.2192 180.329 89.5534 180.748 88.6614 180.748C87.4138 180.748 86.8514 180.11 86.8514 178.903V175.239L86.8385 175.232Z" fill="#EAE3D6"/>
<path d="M94.7233 177.394C94.7233 179.226 95.5119 179.987 97.0439 179.987C97.6451 179.987 98.2527 179.858 98.5759 179.684H98.6664V180.348C98.3497 180.529 97.6192 180.742 96.7013 180.742C94.6522 180.742 93.6309 179.523 93.6309 177.523C93.6309 175.523 94.7686 174.226 96.5268 174.226C98.1299 174.226 98.912 175.271 98.912 176.555C98.912 176.787 98.912 177.065 98.8862 177.277H94.7169V177.394H94.7233ZM97.5417 176.703C97.7614 176.703 97.8584 176.6 97.8584 176.348C97.8584 175.497 97.4124 174.858 96.4816 174.858C95.4215 174.858 94.8655 175.632 94.7621 176.703H97.5417Z" fill="#EAE3D6"/>
<path d="M103.139 180.039H103.753C103.934 180.039 104.031 179.935 104.031 179.735V174.968H103.01V174.355H103.759C103.94 174.355 104.037 174.252 104.037 174.052V173.387C104.037 171.826 104.878 170.768 106.28 170.768C106.597 170.768 106.882 170.806 107.082 170.858V171.684H106.991C106.81 171.619 106.455 171.555 106.035 171.555C105.285 171.555 105.065 171.897 105.065 172.839V174.355H106.629V174.968H105.065V179.735C105.065 179.929 105.143 180.039 105.343 180.039H106.145V180.613H103.152V180.039H103.139Z" fill="#EAE3D6"/>
<path d="M107.328 177.535C107.328 175.523 108.492 174.226 110.314 174.226C112.137 174.226 113.281 175.458 113.281 177.406C113.281 179.355 112.098 180.742 110.289 180.742C108.479 180.742 107.328 179.458 107.328 177.535ZM112.182 177.458C112.182 175.768 111.497 174.852 110.295 174.852C109.093 174.852 108.433 175.794 108.433 177.484C108.433 179.174 109.106 180.116 110.321 180.116C111.536 180.116 112.182 179.148 112.182 177.458Z" fill="#EAE3D6"/>
<path d="M114.406 180.039H115.02C115.201 180.039 115.298 179.935 115.298 179.735V175.232C115.298 175.026 115.208 174.929 115.02 174.929H114.406V174.355H116.048C116.242 174.355 116.326 174.445 116.326 174.645V175.258H116.378C116.643 174.735 117.205 174.226 117.948 174.226C118.129 174.226 118.33 174.239 118.472 174.277V175.194H118.381C118.239 175.168 118.078 175.142 117.923 175.142C117.237 175.142 116.675 175.419 116.319 175.929V179.735C116.319 179.929 116.397 180.039 116.597 180.039H117.321V180.613H114.406V180.039Z" fill="#EAE3D6"/>
<path d="M122.163 172.632C122.099 172.426 121.982 172.29 121.678 172.29H121.336V171.716H124.342V172.29H123.631C123.437 172.29 123.314 172.381 123.314 172.535C123.314 172.626 123.34 172.729 123.366 172.826L125.15 179.426H125.175L127.328 171.716H128.31L130.366 179.426H130.392L132.254 172.826C132.279 172.735 132.305 172.619 132.305 172.535C132.305 172.381 132.189 172.29 131.989 172.29H131.277V171.716H133.928V172.29H133.585C133.281 172.29 133.165 172.419 133.1 172.632L130.728 180.671H129.681L127.677 173.277H127.651L125.512 180.671H124.464L122.157 172.632H122.163Z" fill="#EAE3D6"/>
<path d="M134.148 177.535C134.148 175.523 135.312 174.226 137.135 174.226C138.958 174.226 140.102 175.458 140.102 177.406C140.102 179.355 138.919 180.742 137.109 180.742C135.299 180.742 134.148 179.458 134.148 177.535ZM139.003 177.458C139.003 175.768 138.318 174.852 137.115 174.852C135.913 174.852 135.254 175.794 135.254 177.484C135.254 179.174 135.926 180.116 137.141 180.116C138.356 180.116 139.003 179.148 139.003 177.458Z" fill="#EAE3D6"/>
<path d="M148.685 180.039H149.299C149.493 180.039 149.577 179.935 149.577 179.735V176.323C149.577 175.419 149.221 175.026 148.368 175.026C147.844 175.026 147.269 175.29 146.875 175.665C146.888 175.794 146.9 175.929 146.9 176.058V179.735C146.9 179.929 146.978 180.039 147.178 180.039H147.793V180.613H144.987V180.039H145.601C145.795 180.039 145.873 179.935 145.873 179.735V176.323C145.873 175.419 145.517 175.026 144.664 175.026C144.063 175.026 143.442 175.381 143.132 175.71V179.742C143.132 179.935 143.21 180.045 143.41 180.045H144.024V180.619H141.219V180.045H141.833C142.014 180.045 142.111 179.942 142.111 179.742V175.239C142.111 175.032 142.02 174.935 141.833 174.935H141.219V174.361H142.86C143.054 174.361 143.138 174.452 143.138 174.652V175.084H143.177C143.572 174.665 144.263 174.232 145.129 174.232C145.996 174.232 146.493 174.561 146.732 175.148C147.243 174.652 148.019 174.232 148.833 174.232C149.997 174.232 150.604 174.845 150.604 176.065V179.742C150.604 179.935 150.695 180.045 150.882 180.045H151.496V180.619H148.691V180.045L148.685 180.039Z" fill="#EAE3D6"/>
<path d="M153.54 177.394C153.54 179.226 154.328 179.987 155.86 179.987C156.461 179.987 157.069 179.858 157.392 179.684H157.483V180.348C157.166 180.529 156.435 180.742 155.518 180.742C153.468 180.742 152.447 179.523 152.447 177.523C152.447 175.523 153.585 174.226 155.343 174.226C156.946 174.226 157.728 175.271 157.728 176.555C157.728 176.787 157.728 177.065 157.702 177.277H153.533V177.394H153.54ZM156.358 176.703C156.578 176.703 156.675 176.6 156.675 176.348C156.675 175.497 156.229 174.858 155.298 174.858C154.238 174.858 153.682 175.632 153.578 176.703H156.358Z" fill="#EAE3D6"/>
<path d="M158.918 180.039H159.532C159.713 180.039 159.81 179.935 159.81 179.735V175.232C159.81 175.026 159.719 174.929 159.532 174.929H158.918V174.355H160.56C160.754 174.355 160.838 174.445 160.838 174.645V175.077H160.889C161.322 174.645 161.988 174.226 162.88 174.226C164.141 174.226 164.716 174.852 164.716 176.058V179.735C164.716 179.929 164.794 180.039 164.994 180.039H165.608V180.613H162.803V180.039H163.417C163.611 180.039 163.695 179.935 163.695 179.735V176.29C163.695 175.387 163.288 175.019 162.473 175.019C161.762 175.019 161.2 175.348 160.831 175.716V179.735C160.831 179.929 160.909 180.039 161.109 180.039H161.723V180.613H158.918V180.039Z" fill="#EAE3D6"/>
</svg>
