<svg xmlns:xlink="http://www.w3.org/1999/xlink" xmlns="http://www.w3.org/2000/svg" width="90" height="80" viewBox="0 0 90 80" fill="none">
<g clip-path="url(#clip0_298_58233)">
<path d="M2.6242 50.4068C2.86861 50.4068 3.08695 50.1918 3.08695 49.9441C3.08695 49.6964 2.87187 49.4879 2.6242 49.4879C2.37653 49.4879 2.16797 49.6932 2.16797 49.9441C2.16797 50.195 2.36675 50.4068 2.6242 50.4068Z" fill="white"/>
<path d="M1.41587 50.4068C1.67658 50.4068 1.8884 50.1918 1.8884 49.9441C1.8884 49.6964 1.67658 49.4879 1.41587 49.4879C1.15517 49.4879 0.953125 49.6932 0.953125 49.9441C0.953125 50.195 1.16821 50.4068 1.41587 50.4068Z" fill="white"/>
<path d="M17.6398 53.5615C17.6398 54.1807 17.3433 54.474 16.7632 54.474H15.463V51.1989L14.6124 51.4531V54.4773H12.8298V51.5998L11.9826 51.8442V54.4773H10.213V51.9843L9.36576 52.2189V54.4773H7.98403C7.40071 54.4773 7.10742 54.1938 7.10742 53.6137V49.475L6.26339 49.739V53.5648C6.26339 54.184 5.96358 54.4773 5.377 54.4773H4.70895V54.4968H4.38633C3.80952 54.4968 3.51623 54.1938 3.51623 53.5876V51.2022H1.70109C0.570288 51.2022 0 51.867 0 53.1868C0 54.5066 0.570288 55.23 1.70109 55.23C2.36914 55.23 2.81233 55.0313 3.00786 54.6044C3.19687 55.0313 3.64658 55.23 4.34722 55.23H5.43566C5.97336 55.23 6.397 55.0671 6.68703 54.7445C6.99988 55.0671 7.41374 55.23 7.93189 55.23H16.8121C17.3205 55.23 17.7311 55.0801 18.0341 54.7869C18.3372 54.4805 18.4904 54.109 18.4904 53.6528V49.4913L17.6431 49.7422V53.5681L17.6398 53.5615ZM2.66569 53.1835C2.66569 53.6202 2.60051 53.9428 2.48646 54.1416C2.34959 54.3795 2.10192 54.4968 1.75649 54.4968C1.41106 54.4968 1.16013 54.3795 1.02326 54.1416C0.905943 53.9428 0.844026 53.6202 0.844026 53.1835C0.844026 52.7468 0.905943 52.4242 1.02326 52.2385C1.15687 52.0071 1.4078 51.8865 1.75649 51.8865H2.66569V53.1835Z" fill="white"/>
<path d="M19.2578 55.2233H20.1018V49.4715L19.2578 49.7355V55.2233Z" fill="white"/>
<path d="M23.507 50.4068C23.7677 50.4068 23.9795 50.1918 23.9795 49.9441C23.9795 49.6964 23.7677 49.4879 23.507 49.4879C23.2463 49.4879 23.0508 49.6932 23.0508 49.9441C23.0508 50.195 23.2593 50.4068 23.507 50.4068Z" fill="white"/>
<path d="M24.7238 50.4068C24.9617 50.4068 25.1768 50.1918 25.1768 49.9441C25.1768 49.6964 24.9617 49.4879 24.7238 49.4879C24.4729 49.4879 24.2578 49.6932 24.2578 49.9441C24.2578 50.195 24.4696 50.4068 24.7238 50.4068Z" fill="white"/>
<path d="M24.1244 51.1534C23.4824 51.1534 23.0099 51.3717 22.697 51.7986C22.4396 52.1441 22.3125 52.6101 22.3125 53.1804C22.3125 53.7507 22.4396 54.2232 22.697 54.5719C23.0099 55.0118 23.4824 55.2236 24.1244 55.2236C24.7664 55.2236 25.2487 55.0118 25.5615 54.5719C25.8124 54.2232 25.9363 53.7604 25.9363 53.1804C25.9363 52.6003 25.8124 52.1441 25.5615 51.7986C25.2487 51.3717 24.7664 51.1534 24.1244 51.1534ZM24.1244 54.5099C23.4824 54.5099 23.163 54.0635 23.163 53.1804C23.163 52.2972 23.4824 51.8671 24.1244 51.8671C24.7664 51.8671 25.102 52.3037 25.102 53.1804C25.102 54.057 24.7794 54.5099 24.1244 54.5099Z" fill="white"/>
<path d="M37.7915 53.5614C37.7915 54.1805 37.495 54.4738 36.9149 54.4738H35.5234C35.53 54.1545 35.5234 53.9035 35.5137 53.7178C35.4615 53.0562 35.2301 52.5218 34.8261 52.1079C34.4089 51.6875 33.8647 51.4822 33.1967 51.4822C33.063 51.4822 32.9392 51.4953 32.7991 51.5116L34.7283 49.4879H33.6236L30.8471 52.3752L31.4304 52.9194C31.8312 52.4631 32.3494 52.2285 32.9914 52.2285C33.4769 52.2285 33.881 52.3719 34.1841 52.6554C34.4089 52.864 34.5523 53.1507 34.6142 53.5125C34.637 53.708 34.6599 54.0404 34.6533 54.4934H30.6711V54.4738H29.4132V51.1987L28.5692 51.4529V54.9887C28.5692 55.735 28.126 56.201 27.4058 56.201C26.8974 56.201 26.451 56.0837 26.0469 55.8588L26.451 56.6996C26.7117 56.8625 27.018 56.944 27.4058 56.944C28.5561 56.944 29.2861 56.2629 29.4067 55.2299H36.9638C37.4722 55.2299 37.8795 55.0799 38.1859 54.7867C38.4889 54.4803 38.6421 54.1088 38.6421 53.6526V49.4911L37.7981 49.7421V53.5679L37.7915 53.5614Z" fill="white"/>
<path d="M44.474 51.9384C44.8846 51.9384 45.2562 52.173 45.5625 52.6553L45.8427 51.8341C45.4549 51.4137 44.9857 51.1954 44.4284 51.1954C43.3954 51.1954 42.7436 51.8113 42.7436 52.7759V54.0208H44.9629V55.0733C44.9629 55.4546 44.7869 55.7414 44.461 55.9271C44.2003 56.0803 43.8516 56.1618 43.4345 56.1618C42.8186 56.1618 42.3689 55.9923 42.1082 55.6632C41.8344 55.3308 41.7008 54.7572 41.7008 53.9263L40.8438 54.1902C40.9285 55.1059 41.1338 55.7675 41.4629 56.1716C41.854 56.6767 42.5155 56.9406 43.4377 56.9406C44.1058 56.9406 44.6435 56.8038 45.0541 56.5431C45.5527 56.2139 45.8004 55.7251 45.8004 55.0766V53.2745H43.6007V52.8411C43.6007 52.2382 43.894 51.9384 44.4806 51.9384H44.474Z" fill="white"/>
<path d="M44.0832 57.6546C43.8323 57.6546 43.6172 57.8664 43.6172 58.1076C43.6172 58.3487 43.829 58.5703 44.0832 58.5703C44.3374 58.5703 44.5459 58.3585 44.5459 58.1076C44.5459 57.8567 44.3276 57.6546 44.0832 57.6546Z" fill="white"/>
<path d="M42.8924 57.6546C42.6317 57.6546 42.4297 57.8664 42.4297 58.1076C42.4297 58.3487 42.6317 58.5703 42.8924 58.5703C43.1531 58.5703 43.3552 58.3585 43.3552 58.1076C43.3552 57.8567 43.1401 57.6546 42.8924 57.6546Z" fill="white"/>
<path d="M59.5669 50.4068C59.8211 50.4068 60.0362 50.1918 60.0362 49.9441C60.0362 49.6964 59.8211 49.4879 59.5669 49.4879C59.3127 49.4879 59.0977 49.6932 59.0977 49.9441C59.0977 50.195 59.316 50.4068 59.5669 50.4068Z" fill="white"/>
<path d="M60.7707 50.4068C61.0216 50.4068 61.2334 50.1918 61.2334 49.9441C61.2334 49.6964 61.0216 49.4879 60.7707 49.4879C60.5198 49.4879 60.3047 49.6932 60.3047 49.9441C60.3047 50.195 60.5263 50.4068 60.7707 50.4068Z" fill="white"/>
<path d="M63.8426 53.5615C63.8426 54.1807 63.5493 54.474 62.9692 54.474H62.4348V54.4935H61.3854C61.7504 54.0894 61.9362 53.6658 61.9557 53.2259C61.9655 52.6653 61.8417 52.1993 61.5875 51.8441C61.2877 51.4172 60.8217 51.1989 60.2025 51.1989C59.5833 51.1989 59.1206 51.4172 58.8045 51.8441C58.5536 52.1993 58.4428 52.6653 58.4558 53.2259C58.4623 53.6658 58.6416 54.0927 59.0098 54.4935H57.9116V54.474H57.035C57.0773 53.4866 56.9405 52.7501 56.6374 52.271C56.2105 51.5704 55.5555 51.2217 54.6886 51.2445C53.6426 51.2706 52.8344 51.7464 52.2641 52.6816V49.6314L51.4168 49.8921V54.474H49.3149V51.1989L48.4676 51.4531V54.9889C48.4676 55.7351 48.0244 56.2011 47.3075 56.2011C46.7926 56.2011 46.3494 56.0838 45.9453 55.859L46.3494 56.6997C46.6068 56.8627 46.9164 56.9441 47.3075 56.9441C48.4578 56.9441 49.1845 56.2631 49.3019 55.23H59.6713C59.8603 55.23 60.0298 55.2137 60.2025 55.1746C60.372 55.2137 60.5577 55.23 60.7239 55.23H63.0051C63.5134 55.23 63.9273 55.0801 64.2304 54.7868C64.5334 54.4805 64.6866 54.109 64.6866 53.6528V49.4913L63.8393 49.7422V53.568L63.8426 53.5615ZM56.204 54.474H52.2283C52.3521 53.9037 52.6291 53.366 53.0658 52.8837C53.5774 52.2743 54.1314 51.9875 54.7245 52.0136C55.2361 52.0429 55.6174 52.245 55.8879 52.6132C56.1225 53.0336 56.2333 53.5126 56.2333 54.0764C56.2333 54.21 56.2268 54.3469 56.2007 54.474H56.204ZM60.9064 53.9037C60.737 54.197 60.5056 54.4088 60.2058 54.5C59.906 54.4088 59.6746 54.197 59.4954 53.9037C59.3422 53.6462 59.2672 53.3595 59.2672 53.0466C59.2672 52.4372 59.6192 51.9517 60.2025 51.9517C60.7858 51.9517 61.1378 52.4372 61.1378 53.0466C61.1378 53.3595 61.0563 53.6462 60.9032 53.9037H60.9064Z" fill="white"/>
<path d="M65.4531 55.2233H66.3004V49.4715L65.4531 49.7355V55.2233Z" fill="white"/>
<path d="M71.5724 51.6324C71.24 51.3586 70.8196 51.212 70.2949 51.212C69.8908 51.212 69.4867 51.388 69.0924 51.7367V52.7045C69.3857 52.1831 69.7833 51.9289 70.2949 51.9289C70.9108 51.9289 71.2204 52.219 71.2204 52.799V54.4936H69.0273L68.5156 55.2236H72.0579V52.7338C72.0579 52.2711 71.8982 51.9094 71.5724 51.6324Z" fill="white"/>
<path d="M82.0146 53.5842C82.0146 54.1903 81.7214 54.4934 81.1315 54.4934H80.7014V54.4738H79.5934V54.1773C79.5934 53.3039 79.4793 52.6424 79.2414 52.1829C78.8927 51.5279 78.2703 51.1988 77.3676 51.1988C76.6539 51.1988 76.0054 51.4986 75.4026 52.0754L76.012 52.6424C76.4291 52.1829 76.8755 51.9515 77.3676 51.9515C77.9575 51.9515 78.3485 52.1959 78.544 52.7011C78.6679 53.0009 78.7363 53.4929 78.7363 54.1773V54.4934H74.9496V54.4738H74.1121C73.8188 54.4738 73.6722 54.3305 73.6722 54.0469V49.4683L72.8281 49.7323V54.073C72.8281 54.7573 73.2485 55.2234 74.0045 55.2234H81.1739C81.6855 55.2234 82.0961 55.0735 82.4024 54.7802C82.7055 54.4836 82.8554 54.1023 82.8554 53.6461V51.1988L82.0179 51.4529V53.5842H82.0146Z" fill="white"/>
<path d="M81.2551 50.4068C81.5027 50.4068 81.708 50.1918 81.708 49.9441C81.708 49.6964 81.5027 49.4879 81.2551 49.4879C81.0074 49.4879 80.7891 49.6932 80.7891 49.9441C80.7891 50.195 81.0074 50.4068 81.2551 50.4068Z" fill="white"/>
<path d="M82.451 49.4847C82.2001 49.4847 81.9883 49.69 81.9883 49.9409C81.9883 50.1919 82.2001 50.4037 82.451 50.4037C82.702 50.4037 82.9138 50.1886 82.9138 49.9409C82.9138 49.6933 82.7117 49.4847 82.451 49.4847Z" fill="white"/>
<path d="M85.0666 56.4814C85.0666 56.2793 85.135 56.1685 85.2784 56.1685C85.3794 56.1685 85.4544 56.2109 85.5228 56.3021L85.7184 56.0512C85.5945 55.9274 85.4577 55.8687 85.311 55.8687C84.933 55.8687 84.744 56.0708 84.744 56.4814V56.6476H84.4865L84.3008 56.9669H85.7738V56.6476H85.0699V56.4814H85.0666Z" fill="white"/>
<path d="M86.9842 53.5842C86.9842 54.1805 86.6909 54.4738 86.0978 54.4738H85.7621V49.8366L84.9148 50.0875V54.4771H84.0121L83.6211 55.2266H86.1532C86.6615 55.2266 87.0624 55.0767 87.3687 54.7834C87.6685 54.4869 87.8184 54.1056 87.8184 53.6493V49.4129L86.9809 49.6638V53.5874L86.9842 53.5842Z" fill="white"/>
<path d="M88.5859 49.7355V55.2233H89.4365V49.4715L88.5859 49.7355Z" fill="white"/>
<path d="M3.71631 60.0304C3.55012 59.8251 3.33178 59.672 3.06781 59.5709C2.80385 59.4699 2.48449 59.421 2.10973 59.421C1.73497 59.421 1.41561 59.4699 1.15165 59.5709C0.884427 59.672 0.662829 59.8219 0.496631 60.0304C0.327174 60.2357 0.20334 60.503 0.125129 60.8191C0.046918 61.1384 0.0078125 61.5197 0.0078125 61.9564C0.0078125 62.3931 0.0404004 62.7548 0.118611 63.0709C0.193563 63.387 0.307621 63.6509 0.467302 63.8595C0.630241 64.0713 0.835545 64.2278 1.08321 64.332C1.33414 64.4363 1.62743 64.495 1.97938 64.5047L2.76801 65.4139L3.83363 65.15L2.84622 64.4102C3.32852 64.2994 3.67395 64.0453 3.88577 63.6509C4.10085 63.2534 4.21165 62.6896 4.21165 61.9564C4.21165 61.523 4.16929 61.1384 4.09433 60.8191C4.01286 60.503 3.88903 60.2357 3.72283 60.0304H3.71631ZM3.19817 62.7906C3.1558 63.0057 3.08737 63.1817 2.99938 63.3185C2.90488 63.4522 2.7843 63.5401 2.63765 63.5988C2.48775 63.6477 2.31178 63.6705 2.10321 63.6705C1.89465 63.6705 1.71868 63.6477 1.56551 63.5988C1.41887 63.5401 1.30155 63.4522 1.20379 63.3251C1.11254 63.198 1.05062 63.0187 1.005 62.8004C0.962637 62.5788 0.946344 62.2985 0.946344 61.9531C0.946344 61.6077 0.962637 61.3405 1.005 61.1156C1.05062 60.8973 1.11254 60.7278 1.20379 60.5975C1.29829 60.4671 1.41235 60.3791 1.56551 60.327C1.7089 60.2781 1.88487 60.2488 2.09995 60.2488C2.31503 60.2488 2.49101 60.2781 2.64417 60.327C2.78756 60.3791 2.90813 60.4671 3.0059 60.5942C3.09388 60.718 3.15906 60.894 3.19817 61.1091C3.24053 61.3339 3.26334 61.6142 3.26334 61.9531C3.26334 62.292 3.23727 62.5723 3.19817 62.7906Z" fill="white"/>
<path d="M7.55051 60.7701C7.43319 60.643 7.27677 60.555 7.0845 60.4898C6.89549 60.4312 6.66738 60.3953 6.39038 60.3953C5.89504 60.3953 5.46162 60.4801 5.07709 60.6528L5.14878 61.3371C5.33453 61.2589 5.50725 61.2035 5.67345 61.1709C5.8429 61.1318 6.02865 61.1123 6.24048 61.1123C6.53702 61.1123 6.75211 61.1709 6.8792 61.2687C6.99977 61.3762 7.07147 61.5555 7.07147 61.7999V62.0964C6.95415 62.0606 6.8238 62.0345 6.69019 62.0052C6.55006 61.9824 6.40341 61.9758 6.25025 61.9758C5.7875 61.9758 5.43555 62.0834 5.19766 62.305C4.95651 62.5266 4.83594 62.8166 4.83594 63.1914C4.83594 63.6313 4.94674 63.9572 5.17159 64.1625C5.38993 64.3678 5.68974 64.4688 6.05472 64.4688C6.28936 64.4688 6.50444 64.4297 6.69345 64.345C6.88897 64.257 7.04214 64.1332 7.16597 63.98L7.18878 63.9898L7.25722 64.4102H7.8992V61.9302C7.8992 61.6663 7.86987 61.4382 7.81447 61.2394C7.76233 61.0504 7.67434 60.8907 7.55703 60.7701H7.55051ZM7.06821 63.25C7.06821 63.3315 7.0454 63.3967 6.99977 63.4619C6.95741 63.5303 6.89875 63.5857 6.8238 63.6346C6.75536 63.6867 6.67389 63.7226 6.58591 63.7584C6.48163 63.7877 6.38386 63.804 6.27958 63.804C6.08079 63.804 5.92437 63.7584 5.80706 63.6639C5.68322 63.5727 5.61805 63.413 5.61805 63.1783C5.61805 62.9828 5.67996 62.8264 5.81032 62.7286C5.93089 62.6211 6.13294 62.5657 6.3969 62.5657C6.55984 62.5657 6.70648 62.582 6.8238 62.6048C6.9346 62.6341 7.01933 62.6537 7.07147 62.6765V63.25H7.06821Z" fill="white"/>
<path d="M9.80698 59.4828L9.15196 59.5512L9.00206 60.4702H8.48065V61.1122H8.97599V63.3249C8.97599 63.6931 9.06397 63.9767 9.25298 64.182C9.43548 64.3807 9.70922 64.4753 10.0775 64.4753C10.2078 64.4753 10.3219 64.472 10.4294 64.4459C10.5435 64.4329 10.6347 64.4068 10.6966 64.3742L10.6445 63.7551C10.6119 63.7681 10.5598 63.7779 10.4978 63.7909C10.4327 63.7974 10.374 63.7974 10.3219 63.7974C10.1557 63.7974 10.0286 63.7583 9.93733 63.6834C9.84934 63.6084 9.80372 63.4813 9.80372 63.3119V61.1122H10.7227V60.4702H9.80372V59.4828H9.80698Z" fill="white"/>
<path d="M13.8995 60.7701C13.7756 60.643 13.6225 60.555 13.4367 60.4898C13.2412 60.4312 13.0098 60.3953 12.7361 60.3953C12.2408 60.3953 11.8041 60.4801 11.4195 60.6528L11.4945 61.3371C11.677 61.2589 11.8497 61.2035 12.0126 61.1709C12.1821 61.1318 12.3744 61.1123 12.5894 61.1123C12.8827 61.1123 13.0913 61.1709 13.2217 61.2687C13.3455 61.3762 13.4107 61.5555 13.4107 61.7999V62.0964C13.2999 62.0606 13.1695 62.0345 13.0326 62.0052C12.8958 61.9824 12.7459 61.9758 12.5894 61.9758C12.1267 61.9758 11.7813 62.0834 11.5401 62.305C11.2957 62.5266 11.1719 62.8166 11.1719 63.1914C11.1719 63.6313 11.2859 63.9572 11.5108 64.1625C11.7324 64.3678 12.0257 64.4688 12.3939 64.4688C12.6286 64.4688 12.8436 64.4297 13.0359 64.345C13.2282 64.257 13.3879 64.1332 13.5052 63.98L13.528 63.9898L13.5997 64.4102H14.2319V61.9302C14.2319 61.6663 14.2058 61.4382 14.1569 61.2394C14.0983 61.0504 14.0201 60.8907 13.8995 60.7701ZM13.4074 63.25C13.4074 63.3315 13.3879 63.3967 13.3422 63.4619C13.2999 63.5303 13.2412 63.5857 13.1728 63.6346C13.0978 63.6867 13.0131 63.7226 12.9218 63.7584C12.8273 63.7877 12.7296 63.804 12.622 63.804C12.4298 63.804 12.2701 63.7584 12.143 63.6639C12.0257 63.5727 11.9605 63.413 11.9605 63.1783C11.9605 62.9828 12.0257 62.8264 12.1463 62.7286C12.2701 62.6211 12.4656 62.5657 12.7426 62.5657C12.9088 62.5657 13.0457 62.582 13.1663 62.6048C13.2836 62.6341 13.3585 62.6537 13.4074 62.6765V63.25Z" fill="white"/>
<path d="M16.3568 60.6105C16.1613 60.7408 16.0049 60.9429 15.8843 61.1971H15.8615L15.7898 60.4606L15.125 60.4997V64.4102H15.956V62.4256C15.956 62.2431 15.9853 62.0769 16.0309 61.9303C16.0896 61.7771 16.1548 61.6598 16.2428 61.5588C16.334 61.4545 16.4383 61.3796 16.5589 61.3242C16.686 61.2688 16.8163 61.2394 16.963 61.2394C17.0379 61.2394 17.1096 61.2459 17.1813 61.259C17.2497 61.2688 17.3182 61.2818 17.3801 61.3144L17.4322 60.4638C17.3182 60.4312 17.1813 60.4117 17.0184 60.4117C16.7739 60.4117 16.5556 60.4801 16.3601 60.6072L16.3568 60.6105Z" fill="white"/>
<path d="M22.7863 61.8226V61.8031C22.9883 61.7248 23.148 61.6043 23.2686 61.4283C23.3826 61.2621 23.4445 61.034 23.4445 60.744C23.4445 60.3529 23.3174 60.0433 23.0633 59.8282C22.8091 59.6099 22.4213 59.4991 21.9064 59.4991H20V64.4134H21.9585C22.2583 64.4134 22.5093 64.3808 22.7211 64.3123C22.9362 64.2537 23.1056 64.1592 23.2425 64.0353C23.3761 63.9148 23.4706 63.7616 23.5358 63.5889C23.601 63.4162 23.6303 63.2206 23.6303 63.0023C23.6303 62.6797 23.5553 62.419 23.412 62.2267C23.2686 62.0312 23.06 61.8943 22.7863 61.8291V61.8226ZM20.8701 60.2779H21.8738C22.1215 60.2779 22.304 60.3268 22.418 60.4213C22.5256 60.5158 22.5842 60.6788 22.5842 60.9134C22.5842 61.148 22.5321 61.298 22.4213 61.399C22.3137 61.4967 22.1443 61.5456 21.9162 61.5456H20.8701V60.2779ZM22.5353 63.4944C22.4148 63.6019 22.2192 63.6508 21.9716 63.6508H20.8701V62.2365H21.9455C22.2225 62.2365 22.4213 62.2886 22.5419 62.3994C22.6657 62.5102 22.7243 62.6829 22.7243 62.9241C22.7243 63.1978 22.6592 63.3868 22.5321 63.4911L22.5353 63.4944Z" fill="white"/>
<path d="M26.9913 60.7701C26.8707 60.643 26.711 60.555 26.5285 60.4898C26.3395 60.4312 26.1049 60.3953 25.8311 60.3953C25.3358 60.3953 24.8959 60.4801 24.5146 60.6528L24.5863 61.3371C24.7688 61.2589 24.9415 61.2035 25.1077 61.1709C25.2771 61.1318 25.4629 61.1123 25.6812 61.1123C25.9778 61.1123 26.1863 61.1709 26.3102 61.2687C26.4373 61.3762 26.5057 61.5555 26.5057 61.7999V62.0964C26.3884 62.0606 26.2646 62.0345 26.1244 62.0052C25.9843 61.9824 25.8377 61.9758 25.691 61.9758C25.225 61.9758 24.8731 62.0834 24.6352 62.305C24.394 62.5266 24.2734 62.8166 24.2734 63.1914C24.2734 63.6313 24.3875 63.9572 24.6026 64.1625C24.8274 64.3678 25.1207 64.4688 25.489 64.4688C25.7236 64.4688 25.9387 64.4297 26.1309 64.345C26.3265 64.257 26.4796 64.1332 26.597 63.98L26.6263 63.9898L26.6947 64.4102H27.3334V61.9302C27.3334 61.6663 27.3009 61.4382 27.2487 61.2394C27.1933 61.0504 27.1118 60.8907 26.9945 60.7701H26.9913ZM26.5024 63.25C26.5024 63.3315 26.4764 63.3967 26.434 63.4619C26.3982 63.5303 26.3395 63.5857 26.2646 63.6346C26.1896 63.6867 26.1114 63.7226 26.0169 63.7584C25.9224 63.7877 25.8214 63.804 25.7171 63.804C25.5183 63.804 25.3554 63.7584 25.238 63.6639C25.1207 63.5727 25.0555 63.413 25.0555 63.1783C25.0555 62.9828 25.1207 62.8264 25.2413 62.7286C25.3684 62.6211 25.5672 62.5657 25.8344 62.5657C26.0006 62.5657 26.1375 62.582 26.258 62.6048C26.3688 62.6341 26.4503 62.6537 26.5024 62.6765V63.25Z" fill="white"/>
<path d="M30.2544 62.3311C30.1142 62.2399 29.9611 62.1747 29.7981 62.1226C29.6352 62.0704 29.4853 62.0281 29.3419 61.9792C29.205 61.927 29.0877 61.8749 28.9965 61.8097C28.902 61.7511 28.8564 61.6566 28.8564 61.536C28.8564 61.4089 28.9118 61.3014 29.0193 61.2264C29.1333 61.1547 29.2833 61.1156 29.482 61.1156C29.6287 61.1156 29.8047 61.1352 29.9904 61.1645C30.1762 61.2003 30.3521 61.2492 30.5151 61.3209L30.5933 60.6235C30.2576 60.4769 29.8861 60.4019 29.4918 60.4019C29.0095 60.4019 28.6576 60.5127 28.4164 60.7245C28.1753 60.9396 28.0547 61.2199 28.0547 61.5621C28.0547 61.7902 28.1003 61.9759 28.1948 62.1161C28.2893 62.2562 28.4066 62.367 28.5533 62.4517C28.6934 62.5332 28.8498 62.6049 29.0128 62.6505C29.179 62.7026 29.3354 62.7613 29.4755 62.8037C29.6189 62.8558 29.7427 62.9177 29.8372 62.9894C29.9252 63.0578 29.9774 63.1556 29.9774 63.2794C29.9774 63.4228 29.9252 63.5467 29.8144 63.6412C29.7069 63.7422 29.5342 63.7846 29.2963 63.7846C29.1171 63.7846 28.9215 63.7585 28.713 63.7063C28.5011 63.6509 28.3219 63.5825 28.1687 63.4782L28.071 64.1789C28.2339 64.2831 28.4229 64.3581 28.6315 64.407C28.8368 64.4559 29.0584 64.4787 29.293 64.4787C29.544 64.4787 29.7688 64.4493 29.9448 64.3907C30.1305 64.319 30.2772 64.2375 30.3978 64.1235C30.5151 64.0127 30.6031 63.8791 30.6617 63.7194C30.7171 63.5597 30.7432 63.3902 30.7432 63.198C30.7432 62.9764 30.6943 62.7906 30.6031 62.6505C30.5151 62.5104 30.3945 62.3963 30.2576 62.3181L30.2544 62.3311Z" fill="white"/>
<path d="M34.7999 60.4703H33.8581L32.8902 61.9498H32.3264V59.2418L31.4922 59.2841V64.4102H32.3264V62.644H32.8902L33.8907 64.4102H34.8422L33.6006 62.2594L34.7999 60.4703Z" fill="white"/>
<path d="M37.9387 60.8516C37.8018 60.6984 37.6291 60.5811 37.4336 60.5159C37.2413 60.4377 37.0197 60.4051 36.7785 60.4051C36.2115 60.4051 35.7846 60.5778 35.5076 60.92C35.2339 61.2589 35.0938 61.7379 35.0938 62.3702C35.0938 63.0806 35.2469 63.6085 35.55 63.9604C35.8498 64.3059 36.3353 64.4818 36.9969 64.4818C37.2478 64.4818 37.4759 64.459 37.6877 64.4102C37.8996 64.358 38.0886 64.2994 38.258 64.2146L38.157 63.527C37.9876 63.602 37.8246 63.6509 37.6486 63.6867C37.4727 63.7225 37.2934 63.7388 37.0946 63.7388C36.9122 63.7388 36.7492 63.7193 36.6058 63.6802C36.4657 63.6411 36.3484 63.5792 36.2604 63.4879C36.1659 63.3967 36.0975 63.2859 36.0486 63.149C35.9964 63.0024 35.9704 62.8296 35.9606 62.6243H38.3591C38.3721 62.5657 38.3754 62.494 38.3754 62.419C38.3819 62.3539 38.3819 62.2822 38.3819 62.2268C38.3819 61.9074 38.346 61.6402 38.2678 61.4023C38.1929 61.1742 38.0886 60.9852 37.9484 60.8418L37.9387 60.8516ZM35.9345 62.0638C35.9606 61.7314 36.0323 61.4838 36.1594 61.3371C36.2897 61.1807 36.4983 61.109 36.7851 61.109C37.036 61.109 37.2283 61.1807 37.3749 61.3208C37.5215 61.474 37.5932 61.7119 37.6063 62.0638H35.9345Z" fill="white"/>
<path d="M40.0783 59.4827L39.4298 59.5512L39.2766 60.4702H38.7617V61.1121H39.2505V63.3249C39.2505 63.6931 39.345 63.9766 39.5275 64.1819C39.7133 64.3807 39.9838 64.4752 40.3553 64.4752C40.4791 64.4752 40.5997 64.4719 40.7072 64.4459C40.818 64.4328 40.906 64.4068 40.981 64.3742L40.9256 63.755C40.8897 63.768 40.8376 63.7778 40.7724 63.7909C40.7105 63.7974 40.6486 63.7974 40.6029 63.7974C40.44 63.7974 40.3096 63.7583 40.2184 63.6833C40.1272 63.6084 40.0815 63.4813 40.0815 63.3118V61.1121H41.0103V60.4702H40.0815V59.4827H40.0783Z" fill="white"/>
<path d="M44.6556 60.871C44.5253 60.7081 44.3688 60.594 44.1831 60.5191C44.0006 60.4409 43.7953 60.4017 43.5704 60.4017C43.3716 60.4017 43.1859 60.4343 43.0034 60.4963C42.8242 60.5614 42.6645 60.6624 42.5244 60.7961L42.5015 60.7798L42.5211 60.2616V59.2384L41.6836 59.2807V64.4068H42.2506L42.3647 64.0516C42.495 64.1787 42.6515 64.283 42.8339 64.3612C43.023 64.4492 43.2283 64.4883 43.4629 64.4883C43.7171 64.4883 43.9354 64.4492 44.1309 64.3775C44.3297 64.296 44.4959 64.1787 44.6295 64.0092C44.7664 63.8463 44.8674 63.6345 44.9424 63.3738C45.0108 63.1098 45.0499 62.8002 45.0499 62.432C45.0499 62.0637 45.0141 61.7541 44.9456 61.4967C44.8739 61.2393 44.7762 61.0242 44.6491 60.871H44.6556ZM44.144 63.1261C44.1081 63.2988 44.0462 63.4389 43.9745 63.54C43.8963 63.6377 43.8051 63.7094 43.6975 63.7453C43.59 63.7876 43.4694 63.8039 43.3423 63.8039C43.137 63.8039 42.9676 63.7648 42.8307 63.6866C42.6971 63.6084 42.5928 63.5139 42.5276 63.3998V61.5358C42.6091 61.412 42.7231 61.3175 42.86 61.249C43.0001 61.1806 43.1566 61.148 43.3325 61.148C43.4694 61.148 43.5965 61.1643 43.704 61.2001C43.8148 61.236 43.9028 61.2979 43.9778 61.3957C44.0527 61.4837 44.1114 61.6173 44.1472 61.7932C44.1863 61.966 44.2059 62.181 44.2059 62.4483C44.2059 62.7155 44.1863 62.9469 44.1472 63.1261H44.144Z" fill="white"/>
<path d="M48.3539 60.7701C48.2366 60.643 48.0802 60.555 47.8879 60.4898C47.7054 60.4312 47.474 60.3953 47.1905 60.3953C46.6984 60.3953 46.2618 60.4801 45.8772 60.6528L45.9457 61.3371C46.1281 61.2589 46.3041 61.2035 46.4703 61.1709C46.6365 61.1318 46.8255 61.1123 47.0439 61.1123C47.3372 61.1123 47.549 61.1709 47.6761 61.2687C47.8032 61.3762 47.8683 61.5555 47.8683 61.7999V62.0964C47.751 62.0606 47.6272 62.0345 47.4838 62.0052C47.3437 61.9824 47.2035 61.9758 47.0471 61.9758C46.5876 61.9758 46.2292 62.0834 45.9945 62.305C45.7566 62.5266 45.6328 62.8166 45.6328 63.1914C45.6328 63.6313 45.7469 63.9572 45.9652 64.1625C46.1835 64.3678 46.4866 64.4688 46.8451 64.4688C47.083 64.4688 47.3013 64.4297 47.4871 64.345C47.6859 64.257 47.839 64.1332 47.9628 63.98L47.9824 63.9898L48.0508 64.4102H48.6896V61.9302C48.6896 61.6663 48.6635 61.4382 48.6081 61.2394C48.5559 61.0504 48.468 60.8907 48.3506 60.7701H48.3539ZM47.8683 63.25C47.8683 63.3315 47.8423 63.3967 47.7999 63.4619C47.7575 63.5303 47.7021 63.5857 47.6272 63.6346C47.5522 63.6867 47.4708 63.7226 47.373 63.7584C47.2818 63.7877 47.1807 63.804 47.0797 63.804C46.8842 63.804 46.7245 63.7584 46.6007 63.6639C46.4801 63.5727 46.4214 63.413 46.4214 63.1783C46.4214 62.9828 46.4834 62.8264 46.6072 62.7286C46.731 62.6211 46.9233 62.5657 47.197 62.5657C47.3632 62.5657 47.5066 62.582 47.6239 62.6048C47.7347 62.6341 47.8129 62.6537 47.8683 62.6765V63.25Z" fill="white"/>
<path d="M49.6797 64.4102H50.5172V59.2418L49.6797 59.2841V64.4102Z" fill="white"/>
<path d="M51.6641 64.4102H52.5016V59.2418L51.6641 59.2841V64.4102Z" fill="white"/>
<path d="M58.6233 60.3399L58.6037 59.4991H55.4688V64.4101H56.3747V62.3929H58.2452L58.2518 61.5978H56.3747V60.3399H58.6233Z" fill="white"/>
<path d="M61.7922 60.8516C61.6488 60.6984 61.4859 60.5811 61.2871 60.5159C61.0883 60.4377 60.87 60.4051 60.6321 60.4051C60.065 60.4051 59.6381 60.5778 59.3579 60.92C59.0841 61.2589 58.9375 61.7379 58.9375 62.3702C58.9375 63.0806 59.0939 63.6085 59.397 63.9604C59.7001 64.3059 60.1856 64.4818 60.8472 64.4818C61.0948 64.4818 61.3262 64.459 61.538 64.4102C61.7498 64.358 61.9388 64.2994 62.105 64.2146L62.0073 63.527C61.8443 63.602 61.6781 63.6509 61.5022 63.6867C61.3262 63.7225 61.1437 63.7388 60.9449 63.7388C60.7592 63.7388 60.5897 63.7193 60.4561 63.6802C60.316 63.6411 60.2019 63.5792 60.1107 63.4879C60.0129 63.3967 59.9412 63.2859 59.8923 63.149C59.8402 63.0024 59.8141 62.8296 59.8043 62.6243H62.2028C62.2093 62.5657 62.2126 62.494 62.2158 62.419C62.2158 62.3539 62.2224 62.2822 62.2224 62.2268C62.2224 61.9074 62.18 61.6402 62.1116 61.4023C62.0366 61.1742 61.9323 60.9852 61.7922 60.8418V60.8516ZM59.7913 62.0638C59.8141 61.7314 59.8858 61.4838 60.0162 61.3371C60.1433 61.1807 60.3486 61.109 60.6418 61.109C60.8928 61.109 61.0818 61.1807 61.2317 61.3208C61.3751 61.474 61.4533 61.7119 61.4631 62.0638H59.7913Z" fill="white"/>
<path d="M65.2919 60.2649L65.3049 60.7831L65.2919 60.7994C65.1517 60.6658 64.9986 60.5713 64.8226 60.4996C64.6434 60.4311 64.4543 60.3953 64.2556 60.3953C63.7407 60.3953 63.3627 60.5713 63.1117 60.9167C62.8738 61.2589 62.75 61.7705 62.75 62.4255C62.75 63.1392 62.8738 63.6508 63.1117 63.9832C63.3627 64.3221 63.7407 64.4916 64.2653 64.4916C64.5163 64.4916 64.7313 64.4525 64.9106 64.3743C65.0898 64.2961 65.2397 64.182 65.3635 64.0354H65.3798L65.4776 64.4134H66.1228V59.2449L65.2951 59.2873V60.2682L65.2919 60.2649ZM65.2919 63.3999C65.2365 63.4944 65.1517 63.5857 65.0214 63.6704C64.8943 63.7519 64.7183 63.7975 64.4869 63.7975C64.324 63.7975 64.1839 63.7747 64.0731 63.7258C63.9558 63.6834 63.8678 63.6085 63.8026 63.5042C63.7309 63.3999 63.682 63.2598 63.6592 63.0903C63.6266 62.9274 63.6136 62.7123 63.6136 62.4614C63.6136 62.2267 63.6266 62.0182 63.6592 61.8585C63.6885 61.6956 63.7407 61.5652 63.8091 61.4609C63.8841 61.3566 63.9753 61.285 64.0828 61.2361C64.1969 61.1872 64.3338 61.1709 64.4935 61.1709C64.6792 61.1709 64.8356 61.2002 64.9758 61.2654C65.1126 61.3273 65.2104 61.4153 65.2919 61.5326V63.4032V63.3999Z" fill="white"/>
<path d="M69.7388 60.8516C69.5987 60.6984 69.4292 60.5811 69.2304 60.5159C69.0316 60.4377 68.8166 60.4051 68.5787 60.4051C68.0084 60.4051 67.5847 60.5778 67.3012 60.92C67.0275 61.2589 66.8906 61.7379 66.8906 62.3702C66.8906 63.0806 67.0405 63.6085 67.3436 63.9604C67.6499 64.3059 68.1322 64.4818 68.7938 64.4818C69.0447 64.4818 69.2761 64.459 69.4879 64.4102C69.6997 64.358 69.8855 64.2994 70.0549 64.2146L69.9539 63.527C69.7877 63.602 69.6182 63.6509 69.4455 63.6867C69.2761 63.7225 69.087 63.7388 68.8948 63.7388C68.7025 63.7388 68.5396 63.7193 68.3994 63.6802C68.2593 63.6411 68.142 63.5792 68.054 63.4879C67.966 63.3967 67.8911 63.2859 67.8422 63.149C67.79 63.0024 67.7607 62.8296 67.7542 62.6243H70.1494C70.1559 62.5657 70.1624 62.494 70.1624 62.419C70.1624 62.3539 70.169 62.2822 70.169 62.2268C70.169 61.9074 70.1331 61.6402 70.0582 61.4023C69.9832 61.1742 69.8724 60.9852 69.7388 60.8418V60.8516ZM67.7346 62.0638C67.7542 61.7314 67.8292 61.4838 67.9563 61.3371C68.0866 61.1807 68.2952 61.109 68.5819 61.109C68.8361 61.109 69.0316 61.1807 69.175 61.3208C69.3184 61.474 69.3934 61.7119 69.3999 62.0638H67.7346Z" fill="white"/>
<path d="M72.1309 60.6105C71.9386 60.7408 71.7757 60.9429 71.6584 61.1971H71.6388L71.5639 60.4606L70.9023 60.4997V64.4102H71.7301V62.4256C71.7301 62.2431 71.7561 62.0769 71.8148 61.9303C71.8637 61.7771 71.9321 61.6598 72.0266 61.5588C72.1146 61.4545 72.2222 61.3796 72.3427 61.3242C72.4698 61.2688 72.6002 61.2394 72.7436 61.2394C72.8185 61.2394 72.8869 61.2459 72.9554 61.259C73.0303 61.2688 73.0955 61.2818 73.1542 61.3144L73.203 60.4638C73.0922 60.4312 72.9521 60.4117 72.7924 60.4117C72.5513 60.4117 72.3297 60.4801 72.1374 60.6072L72.1309 60.6105Z" fill="white"/>
<path d="M76.2751 60.7701C76.1578 60.643 76.0046 60.555 75.8059 60.4898C75.6201 60.4312 75.3887 60.3953 75.115 60.3953C74.6229 60.3953 74.1797 60.4801 73.7984 60.6528L73.8734 61.3371C74.0559 61.2589 74.2319 61.2035 74.3915 61.1709C74.5577 61.1318 74.7533 61.1123 74.9651 61.1123C75.2649 61.1123 75.4702 61.1709 75.5973 61.2687C75.7211 61.3762 75.7896 61.5555 75.7896 61.7999V62.0964C75.6788 62.0606 75.5452 62.0345 75.4083 62.0052C75.2682 61.9824 75.1215 61.9758 74.9684 61.9758C74.5056 61.9758 74.1569 62.0834 73.9158 62.305C73.6746 62.5266 73.5508 62.8166 73.5508 63.1914C73.5508 63.6313 73.6616 63.9572 73.8832 64.1625C74.108 64.3678 74.4013 64.4688 74.7761 64.4688C75.0042 64.4688 75.2193 64.4297 75.4115 64.345C75.6006 64.257 75.7602 64.1332 75.8841 63.98L75.9036 63.9898L75.9753 64.4102H76.6108V61.9302C76.6108 61.6663 76.5815 61.4382 76.5326 61.2394C76.4804 61.0504 76.3957 60.8907 76.2719 60.7701H76.2751ZM75.7928 63.25C75.7928 63.3315 75.7668 63.3967 75.7276 63.4619C75.682 63.5303 75.6234 63.5857 75.5484 63.6346C75.48 63.6867 75.3953 63.7226 75.3073 63.7584C75.2062 63.7877 75.1117 63.804 75.0107 63.804C74.8087 63.804 74.6522 63.7584 74.5317 63.6639C74.4078 63.5727 74.3492 63.413 74.3492 63.1783C74.3492 62.9828 74.4111 62.8264 74.5317 62.7286C74.6588 62.6211 74.8543 62.5657 75.128 62.5657C75.2975 62.5657 75.4376 62.582 75.5517 62.6048C75.6625 62.6341 75.7505 62.6537 75.7961 62.6765V63.25H75.7928Z" fill="white"/>
<path d="M78.5349 59.4828L77.8799 59.5512L77.73 60.4702H77.2151V61.1122H77.7072V63.3249C77.7072 63.6931 77.7984 63.9767 77.9809 64.182C78.1667 64.3807 78.4371 64.4753 78.8119 64.4753C78.9325 64.4753 79.0498 64.472 79.1638 64.4459C79.2714 64.4329 79.3626 64.4068 79.4245 64.3742L79.3724 63.7551C79.3366 63.7681 79.2877 63.7779 79.2192 63.7909C79.1606 63.7974 79.1019 63.7974 79.0498 63.7974C78.8836 63.7974 78.7565 63.7583 78.6685 63.6834C78.5773 63.6084 78.5349 63.4813 78.5349 63.3119V61.1122H79.4571V60.4702H78.5349V59.4828Z" fill="white"/>
<path d="M80.6718 59.1634C80.3394 59.1634 80.1797 59.2905 80.1797 59.5577C80.1797 59.7044 80.2188 59.8021 80.3035 59.8575C80.385 59.9129 80.5088 59.9455 80.675 59.9455C81.0042 59.9455 81.1769 59.8119 81.1769 59.5577C81.1769 59.2905 81.0042 59.1634 80.675 59.1634H80.6718Z" fill="white"/>
<path d="M80.2461 64.4101H81.0901V60.4539L80.2461 60.4996V64.4101Z" fill="white"/>
<path d="M85.0789 60.8841C84.9355 60.7179 84.7563 60.5973 84.5347 60.5223C84.3164 60.4376 84.0557 60.3985 83.7493 60.3985C83.443 60.3985 83.1758 60.4376 82.9607 60.5223C82.7326 60.5973 82.5501 60.7179 82.4067 60.8841C82.2601 61.0535 82.1525 61.2621 82.0841 61.5195C82.0189 61.7802 81.9766 62.0963 81.9766 62.4516C81.9766 62.8068 82.0157 63.1359 82.0841 63.3933C82.1525 63.6508 82.2601 63.8626 82.4067 64.0288C82.5501 64.195 82.7326 64.3123 82.9607 64.3905C83.1758 64.4622 83.4398 64.5013 83.7493 64.5013C84.0589 64.5013 84.3164 64.4622 84.5347 64.3905C84.7563 64.3123 84.9355 64.195 85.0789 64.0288C85.2223 63.8626 85.3233 63.6508 85.3918 63.3933C85.4569 63.1359 85.4895 62.8198 85.4895 62.4516C85.4895 62.0833 85.4569 61.7802 85.3918 61.5195C85.3233 61.2621 85.2223 61.0535 85.0789 60.8841ZM84.5869 63.1001C84.5575 63.2728 84.5021 63.4129 84.4337 63.5139C84.3653 63.6182 84.2707 63.6964 84.1599 63.7355C84.0459 63.7811 83.909 63.8039 83.7493 63.8039C83.5897 63.8039 83.4463 63.7811 83.3355 63.7355C83.2214 63.6964 83.1237 63.6182 83.052 63.5139C82.977 63.4129 82.9281 63.2728 82.8923 63.1001C82.863 62.9273 82.8434 62.7155 82.8434 62.4516C82.8434 62.1876 82.863 61.9823 82.8923 61.8096C82.9281 61.6369 82.977 61.5 83.052 61.3892C83.1237 61.2816 83.2214 61.21 83.329 61.1741C83.4398 61.1317 83.5831 61.1089 83.7493 61.1089C83.9155 61.1089 84.0459 61.1317 84.1599 61.1741C84.2707 61.21 84.3653 61.2816 84.4337 61.3892C84.5054 61.4967 84.5575 61.6336 84.5869 61.8096C84.6194 61.9823 84.6357 62.1974 84.6357 62.4516C84.6357 62.7057 84.6194 62.9273 84.5869 63.1001Z" fill="white"/>
<path d="M89.0767 60.77C88.8323 60.5256 88.4999 60.3985 88.0828 60.3985C87.8677 60.3985 87.6624 60.4376 87.4734 60.5093C87.2844 60.5777 87.1149 60.6853 86.965 60.8222L86.8346 60.4474L86.2383 60.4898V64.4101H87.0725V61.5163C87.154 61.4022 87.2681 61.3175 87.4114 61.2491C87.5614 61.1904 87.7047 61.1546 87.8514 61.1546C88.0958 61.1546 88.2815 61.21 88.4119 61.324C88.5455 61.4381 88.6107 61.614 88.6107 61.865V64.4133H89.4384V61.865C89.4384 61.3827 89.3211 61.0177 89.0767 60.7733V60.77Z" fill="white"/>
<path d="M16.6844 37.8118C16.6844 37.8118 8.90246 30.7793 11.6627 21.8046C12.057 20.5272 13.292 14.6386 22.2276 10.4478C25.431 8.94546 30.1367 8.00041 34.6567 6.33517C38.2935 4.99255 41.1417 3.35338 41.461 -0.00317383C41.461 -0.00317383 42.4126 7.52137 38.8703 10.2229C32.7633 14.883 23.2216 14.355 18.1965 18.9369C15.4787 21.4168 11.3237 26.9112 16.6812 37.8085L16.6844 37.8118Z" fill="white"/>
<path d="M52.2462 17.1741C55.883 17.1741 61.5957 17.8715 61.5957 23.2354C61.5957 25.3145 60.2107 27.2177 57.0953 28.254C61.5957 28.9481 62.8112 31.0272 62.8112 33.7972C62.8112 38.9917 57.62 40.028 53.289 40.028H46.3608V21.3355C46.3608 17.4022 43.2422 17.1741 43.2422 17.1741H52.2462ZM52.7709 27.7358C55.5376 27.7358 58.3108 26.1748 58.3108 23.0594C58.3108 19.7648 54.8435 18.3798 52.08 18.3798C51.2132 18.3798 50.8482 18.5591 50.1508 18.7318V27.7358H52.7709ZM50.1508 29.1208V38.3269C51.1871 38.643 51.7281 38.8157 52.7709 38.8157C56.9226 38.8157 59.3471 37.082 59.3471 33.9699C59.3471 30.8577 57.0953 29.1208 52.7709 29.1208H50.1508Z" fill="white"/>
<path d="M75.4307 17.1738C77.8552 17.1738 78.3701 18.5621 78.3701 19.9405V22.541C78.3701 22.541 77.2426 18.5653 73.3548 18.5653H68.5188V27.7388H75.6751V29.1205H68.5188V40.0244H64.7353V21.332C64.7353 17.7278 61.6134 17.1706 61.6134 17.1706H75.4339L75.4307 17.1738Z" fill="white"/>
<path d="M38.4818 39.2653C41.5353 37.2872 43.572 34.1164 43.7969 29.893C44.2238 21.984 37.7876 15.4925 29.8818 15.0656C29.0639 15.0232 28.2589 15.0427 27.4736 15.134C34.6918 15.9161 40.1275 21.8797 39.7527 28.7948C39.4561 34.3348 35.5163 38.9264 30.237 40.5102C28.1547 41.0479 27.1542 41.2825 24.0127 40.9794C21.9076 40.6927 20.011 39.904 18.3359 38.8417C19.5547 40.1289 22.064 41.729 25.0816 42.5404C27.7017 43.2508 29.9372 43.2117 30.6607 43.1922C32.0587 43.1465 33.9227 42.8728 35.0144 42.6805C37.8202 42.1852 43.1223 41.7061 45.2177 44.6521C45.2177 44.6521 43.7186 39.9757 38.4818 39.2621V39.2653Z" fill="white"/>
<path d="M27.8374 16.4243C27.8374 16.4243 19.3613 19.1943 20.0065 29.2314C20.0065 29.2314 19.4558 35.0418 24.7937 39.3662C24.7937 39.3662 17.4223 36.6907 18.993 26.8394C18.993 26.8394 19.2668 18.8195 27.8374 16.4243Z" fill="white"/>
<path d="M34.554 19.0279C34.554 19.0279 31.0997 18.5261 26.0876 21.4916C26.0876 21.4916 18.2861 25.6465 16.875 20.8431C16.875 20.8431 16.0766 23.5283 19.5831 24.5907C20.3619 24.8221 23.3242 24.532 27.1956 21.8598C30.3795 19.6601 32.9376 19.4223 34.554 19.0312V19.0279Z" fill="white"/>
<path d="M34.1163 38.2157C34.1163 38.2157 30.662 38.7241 25.65 35.7553C25.65 35.7553 17.7637 31.6493 16.4374 36.3941C16.4374 36.3941 15.1665 33.5719 19.3866 32.8061C20.185 32.6627 22.9941 32.5617 26.7612 35.3806C29.8538 37.7008 32.5032 37.8247 34.1163 38.2157Z" fill="white"/>
<path d="M37.7789 33.4189C37.7789 33.4189 21.0711 23.7826 14.4102 30.5022C14.4102 30.5022 17.0172 21.0094 37.7789 33.4189Z" fill="white"/>
<path d="M19.5931 71.5434L20.9423 71.5956L19.2933 78.5987L18.0908 78.5498L19.5931 71.5467V71.5434ZM20.1243 69.3242L19.8408 70.7222L21.04 70.7418L21.4083 69.3731L20.1243 69.3209V69.3242ZM32.1004 78.5466L33.3029 78.5954L34.9518 71.5923L33.6027 71.5402L32.1004 78.5433V78.5466ZM34.1371 69.3242L33.8536 70.7222L35.0561 70.7418L35.4243 69.3731L34.1371 69.3209V69.3242ZM61.3513 78.5466L62.5505 78.5954L64.1994 71.5923L62.8503 71.5402L61.348 78.5433L61.3513 78.5466ZM63.3847 69.3242L63.1012 70.7222L64.3037 70.7418L64.672 69.3731L63.3847 69.3209V69.3242ZM30.9011 71.4619H22.5456L20.9423 78.5466L22.0926 78.5335L23.4287 72.6612H26.3128L24.9636 78.5335H26.228L27.6163 72.6775L30.3308 72.6612L29.0632 78.5172H30.2787L31.5301 72.4135L30.8979 71.4619H30.9011ZM41.137 71.4782H36.4183L34.8508 78.5335H35.9848L37.3177 72.697L40.5406 72.6416L39.3056 78.5303H40.5406L41.8344 72.394L41.1337 71.475L41.137 71.4782ZM48.9939 71.3968L47.3645 78.8757L46.2077 80.0032H41.9061L43.1346 78.628H46.3119L46.4879 77.1779H43.1574L42.5317 76.0308L43.2324 72.6286L44.461 71.4033H48.9939V71.3968ZM47.459 72.7198L44.5587 72.7459L43.8027 75.8711L46.8594 75.845L47.459 72.7198ZM71.2417 71.3968L69.6123 78.8757L68.4587 80.0032H64.1571L65.3791 78.628H68.563L68.7357 77.1779H65.4084L64.7828 76.0308L65.4834 72.6286L66.7087 71.4033H71.2449L71.2417 71.3968ZM69.7068 72.7198L66.8065 72.7459L66.0569 75.8711L69.1072 75.845L69.7068 72.7198ZM60.1194 69.1906L59.2428 72.8176L55.6647 72.7948L56.4435 69.2883L55.2638 68.6138L53.0837 78.4683L54.4133 78.5172L55.3649 74.245H59.018L58.0175 78.5433H59.2917L61.5663 68.692L60.1194 69.1906ZM77.7267 71.3968L74.2756 71.4196L74.8524 68.6952L73.4251 69.1678L71.4731 78.5237H72.6495L74.0247 72.7231L76.9771 72.671L75.7518 78.5009H77.0032L78.3556 72.5211L77.7299 71.3968H77.7267ZM18.2896 68.894L16.2366 78.4488L14.8842 78.5466L15.6467 75.0955H11.5374L10.7879 78.4977H9.48438L11.2832 70.2432L12.8377 68.894H18.2896ZM16.6896 70.3442H12.5867L11.8665 73.5965H15.9759L16.6896 70.3442Z" fill="white"/>
</g>
<defs>
<clipPath id="clip0_298_58233">
<rect width="89.4375" height="80" fill="white"/>
</clipPath>
</defs>
</svg>