<svg xmlns:xlink="http://www.w3.org/1999/xlink" xmlns="http://www.w3.org/2000/svg" width="67" height="114" viewBox="0 0 67 114" fill="none">
<path d="M52.6859 71.2486C60.2188 62.7087 64.7405 51.6561 65.031 39.8242C65.0407 39.4272 65.0455 39.0254 65.0455 38.6235V17.7046L61.9423 26.5011L58.3453 17.1914L54.8112 26.5011L51.311 17.1914L47.8059 26.5011L44.2718 17.1914L40.7377 26.5011L37.2036 17.1914L33.6792 26.5011L30.1548 17.1914L26.6207 26.5011L23.0866 17.1914L19.5573 26.5011L16.0522 17.1914L12.552 26.5011L9.01794 17.1914L5.42574 26.5011L2.32251 17.7046V38.6235C2.32251 50.9106 6.89748 62.423 14.6822 71.2535C17.9113 74.9134 21.6487 78.1571 25.9042 80.7277H25.9138L25.9235 80.7374H25.9284C27.8794 81.9429 29.9224 83.0225 32.0574 83.9617C32.7061 84.2473 32.8513 84.3054 33.5146 84.5765C33.5775 84.6056 33.6405 84.6201 33.684 84.6298C33.7276 84.6201 33.7905 84.6056 33.8535 84.5765C34.5167 84.3103 34.662 84.2522 35.3107 83.9617C37.4457 83.0225 39.4935 81.9477 41.4397 80.7423L41.4542 80.7326C45.7193 78.1571 49.4616 74.9134 52.6907 71.2486" fill="#8B1839"/>
<path d="M33.6633 0.636719C20.4904 0.636719 8.62933 2.72813 0.321777 6.07342V38.5533C0.321777 43.8738 1.14963 49.0636 2.69398 53.9774C6.55728 65.1849 14.7341 74.8189 25.8883 80.7349C25.8883 80.7349 25.8835 80.7349 25.8786 80.7301C21.6232 78.1545 17.8809 74.9158 14.6567 71.2558C6.87196 62.4302 2.297 50.9129 2.297 38.6259V32.6615V7.63714C9.99456 4.55328 21.1923 2.61194 33.6633 2.61194C46.1344 2.61194 57.3321 4.55328 65.0297 7.63714V38.6307C65.0297 39.0374 65.0248 39.4344 65.0152 39.8313C64.7295 51.6633 60.203 62.7207 52.67 71.2558C49.4409 74.9158 45.6986 78.1642 41.4335 80.7398C52.5877 74.8238 60.7646 65.1897 64.6279 53.9823C66.1722 49.0733 67.0001 43.8835 67.0001 38.5581V6.07342C58.6925 2.73297 46.8315 0.636719 33.6585 0.636719" fill="#85764C"/>
<path d="M65.0166 17.7053L61.9134 26.497L58.3164 17.1873L54.7823 26.497L51.2821 17.1873L47.777 26.497L44.2429 17.1873L40.7088 26.497L37.1747 17.1873L33.6503 26.497L30.1259 17.1873L26.5918 26.497L23.0577 17.1873L19.5236 26.497L16.0185 17.1873L12.5183 26.497L8.9842 17.1873L5.38717 26.497L2.28394 17.7053V7.63067C9.9815 4.5468 21.1793 2.60547 33.6503 2.60547C46.1213 2.60547 57.3191 4.5468 65.0166 7.63067V17.7053Z" fill="white"/>
<path d="M41.6071 99.9367C41.8104 99.9367 42.0186 99.9464 42.2219 99.9657C42.6624 100.009 43.0836 100.106 43.4903 100.232C45.6446 100.934 47.2713 102.808 47.6199 105.102C48.0265 105.233 48.4477 105.33 48.8883 105.369C48.6123 102.251 46.3853 99.6995 43.4322 98.9394C43.0401 98.8377 42.6334 98.77 42.2122 98.7361C42.0089 98.7216 41.8104 98.707 41.6071 98.707C41.3844 98.707 41.1617 98.7216 40.9486 98.7409C40.968 98.9346 40.9729 99.1282 40.9729 99.3315C40.9729 99.5446 40.9632 99.7576 40.939 99.9657C41.1617 99.9415 41.3795 99.927 41.6071 99.927" fill="#00A64F"/>
<path d="M49.507 91.9922C45.663 91.9922 42.5114 94.9599 42.2161 98.7263C42.6373 98.7602 43.0391 98.828 43.4361 98.9297C43.6297 95.7393 46.2682 93.217 49.507 93.217C52.7457 93.217 55.5972 95.9426 55.5972 99.3073C55.5972 102.672 52.8716 105.398 49.507 105.398C49.2988 105.398 49.0955 105.388 48.8921 105.369C48.4516 105.325 48.0304 105.233 47.6237 105.097C45.4645 104.395 43.8427 102.522 43.4941 100.227C43.0875 100.096 42.6663 99.9996 42.2257 99.956C42.5017 103.074 44.7287 105.63 47.6818 106.39C48.0788 106.487 48.4806 106.559 48.897 106.593C49.1003 106.608 49.3036 106.618 49.507 106.618C53.5494 106.618 56.8221 103.345 56.8221 99.3073C56.8221 95.2697 53.5494 91.997 49.507 91.997" fill="#EE3550"/>
<path d="M25.1136 98.7623C24.828 94.9813 21.6763 92.0039 17.8227 92.0039C13.9691 92.0039 10.5125 95.2766 10.5125 99.319C10.5125 103.361 13.7851 106.629 17.8227 106.629C18.0454 106.629 18.2584 106.62 18.4714 106.6C18.4618 106.416 18.4521 106.232 18.4521 106.043C18.4521 105.816 18.4666 105.593 18.4811 105.366C18.2681 105.39 18.0502 105.404 17.8227 105.404C14.4629 105.404 11.7324 102.679 11.7324 99.3142C11.7324 95.9495 14.4629 93.2239 17.8227 93.2239C21.1825 93.2239 23.7193 95.7655 23.8985 98.9704C23.9033 99.0818 23.9178 99.198 23.9178 99.3142C23.9178 99.6385 23.8839 99.9581 23.8355 100.268C23.4773 102.529 21.8797 104.373 19.7592 105.085C19.7108 105.4 19.6769 105.719 19.6769 106.039C19.6769 106.155 19.6866 106.271 19.6963 106.382C22.6204 105.617 24.828 103.081 25.1136 99.9871C25.1378 99.7644 25.1475 99.5417 25.1475 99.3142C25.1475 99.1254 25.1378 98.9414 25.1233 98.7623" fill="#0E81C4"/>
<path d="M25.7608 99.9601C25.969 99.9601 26.1723 99.9698 26.3805 99.9892C26.8162 100.033 27.2422 100.125 27.6489 100.26C29.8081 100.962 31.4299 102.836 31.7784 105.126C32.1851 105.256 32.6063 105.348 33.0468 105.392C32.7709 102.279 30.5439 99.7229 27.5908 98.9628C27.1986 98.8612 26.792 98.7934 26.3756 98.7595C26.1771 98.745 25.9738 98.7305 25.7656 98.7305C25.5478 98.7305 25.3348 98.7402 25.1217 98.7595C25.1363 98.9435 25.1459 99.1274 25.1459 99.3114C25.1459 99.539 25.1314 99.7616 25.1121 99.9843C25.3299 99.9601 25.5478 99.9505 25.7705 99.9505" fill="#FCB12F"/>
<path d="M31.825 106.418C31.6314 109.609 28.9929 112.136 25.7541 112.136C22.5153 112.136 19.8623 109.589 19.6832 106.385C19.6735 106.273 19.6638 106.162 19.6638 106.041C19.6638 105.716 19.6977 105.397 19.7461 105.087C20.1044 102.826 21.702 100.982 23.8225 100.27C23.8709 99.9554 23.9048 99.6407 23.9048 99.3164C23.9048 99.2002 23.8951 99.0888 23.8902 98.9727C20.9661 99.7424 18.7585 102.274 18.4729 105.363C18.4535 105.591 18.4438 105.813 18.4438 106.041C18.4438 106.23 18.4535 106.414 18.4632 106.598C18.7488 110.374 21.9005 113.361 25.7541 113.361C29.6077 113.361 32.7497 110.388 33.0402 106.622C32.6238 106.588 32.2172 106.52 31.825 106.418Z" fill="#FCB12F"/>
<path d="M33.6508 105.421C33.4427 105.421 33.2393 105.411 33.036 105.387C32.5955 105.344 32.1743 105.252 31.7676 105.121C29.6084 104.419 27.9866 102.545 27.638 100.255C27.2362 100.125 26.8102 100.028 26.3696 99.9844C26.6456 103.102 28.8725 105.658 31.8257 106.414C32.2178 106.51 32.6245 106.583 33.0408 106.617C33.2442 106.636 33.4475 106.641 33.6508 106.641C33.8735 106.641 34.0914 106.631 34.3093 106.612C34.2947 106.418 34.285 106.22 34.285 106.021C34.285 105.804 34.2947 105.595 34.3141 105.382C34.0962 105.407 33.8735 105.421 33.6508 105.421Z" fill="black"/>
<path d="M40.9364 98.7353C40.6314 94.9736 37.4894 92.0156 33.6503 92.0156C29.8112 92.0156 26.6596 94.9833 26.3643 98.7546C26.7806 98.7885 27.1873 98.8563 27.5794 98.958C27.7731 95.7676 30.4115 93.2405 33.6503 93.2405C36.8891 93.2405 39.5227 95.7627 39.7212 98.9483C39.7309 99.0741 39.7406 99.2 39.7406 99.3259C39.7406 99.6357 39.7115 99.9407 39.6631 100.241C39.3194 102.521 37.7169 104.38 35.582 105.097C35.5336 105.397 35.5045 105.697 35.5045 106.012C35.5045 106.137 35.519 106.263 35.5239 106.389C38.4577 105.615 40.6653 103.063 40.9315 99.9552C40.9509 99.7471 40.9654 99.5292 40.9654 99.321C40.9654 99.1129 40.9557 98.9241 40.9364 98.7304" fill="black"/>
<path d="M47.6664 106.39C47.4727 109.576 44.8342 112.108 41.6003 112.108C38.3664 112.108 35.723 109.581 35.5294 106.4C35.5197 106.274 35.51 106.148 35.51 106.022C35.51 105.708 35.5391 105.403 35.5875 105.102C35.9312 102.822 37.5337 100.963 39.6686 100.247C39.7122 99.9465 39.7461 99.6415 39.7461 99.3317C39.7461 99.201 39.7364 99.0751 39.7267 98.9492C36.7978 99.7238 34.5902 102.275 34.3191 105.378C34.2997 105.591 34.29 105.8 34.29 106.017C34.29 106.216 34.2997 106.414 34.3142 106.608C34.6144 110.37 37.7612 113.328 41.6003 113.328C45.4394 113.328 48.591 110.36 48.8864 106.594C48.47 106.56 48.0633 106.492 47.6712 106.39" fill="#00A64F"/>
<path d="M23.7671 43.4381V43.1041C24.2948 43.2929 24.8563 43.3849 25.3792 43.3849H37.2886C38.1746 43.3849 38.9056 42.8959 39.2929 42.2036V43.3849C44.8071 43.3849 45.083 43.3849 45.0927 43.3849C46.3514 43.3849 47.8474 42.8524 48.5542 41.6711C48.772 41.3467 48.8882 40.9982 48.9366 40.5721C48.9463 40.5044 48.9657 40.1994 48.9657 40.1994V37.8853C48.9608 35.6099 46.8016 34.6319 45.0879 34.6319C43.3741 34.6319 41.3165 35.5808 41.2536 37.7787V38.9213C41.2536 39.0375 41.2972 39.144 41.3795 39.2263L43.0545 40.9013C43.1804 41.0272 43.3789 41.0272 43.5048 40.9013L44.4924 39.9137C44.6183 39.7879 44.6183 39.5894 44.4924 39.4635L43.5096 38.4807C43.5096 38.4807 43.2627 36.6168 45.1072 36.6168C46.0561 36.6168 46.7193 37.1494 46.7193 38.0692V39.9283C46.7193 40.8481 46.0513 41.3806 45.0975 41.3806C45.0927 41.3806 42.1686 41.3806 39.5688 41.3806C39.6124 41.0272 39.5785 40.6593 39.443 40.2913L37.9664 36.3312C37.8066 35.9003 37.3903 35.6099 36.9304 35.6099H33.9627C32.8299 35.6099 31.7357 35.9536 30.8692 36.5249V31.7853C30.8692 31.6062 30.7239 31.4609 30.5448 31.4609H28.9423C28.7632 31.4609 28.6228 31.6062 28.6228 31.7853V41.3758C28.6228 41.3758 25.3937 41.3758 25.3889 41.3758C24.44 41.3758 23.7767 40.8432 23.7767 39.9234V36.5684C23.7767 36.3893 23.6315 36.2441 23.4524 36.2441H21.8403C21.6611 36.2441 21.5159 36.3893 21.5159 36.5684V43.2106C21.5159 44.1304 20.8526 44.6485 19.9038 44.6485H18.6305C18.4514 44.6485 18.3062 44.7937 18.3062 44.9728V46.3477C18.3062 46.5269 18.4514 46.6721 18.6305 46.6721H19.9038C21.6176 46.6721 23.7767 45.6942 23.7767 43.4333M30.874 40.6157C30.874 39.9815 31.1984 39.1246 31.7212 38.6114C32.4087 37.9385 33.2026 37.6287 34.0498 37.6287H36.0347L37.4097 41.3613L30.8788 41.3758V40.6157H30.874Z" fill="white"/>
<path d="M15.7919 49.0048C13.7537 49.0823 12.1416 50.3071 12.1416 52.3453V55.6518C12.1416 57.3511 13.4826 58.5711 15.1286 58.8083L17.1571 60.8319C17.2781 60.953 17.4766 60.953 17.6025 60.8319L18.6143 59.8201C18.7354 59.6991 18.7354 59.5006 18.6143 59.3747L16.1163 56.8767H15.8161C15.0367 56.8767 14.4025 56.2425 14.4025 55.463V52.3937C14.4025 51.6142 15.0125 50.98 15.879 50.98H16.1163C16.9441 50.98 17.617 51.653 17.617 52.4808V55.6421C17.617 55.9084 17.5299 56.1553 17.3895 56.3538C17.312 56.4603 17.3266 56.6249 17.4185 56.7169L18.5562 57.8546C18.6821 57.9805 18.8854 57.9756 19.0113 57.8497C19.5342 57.2978 19.8585 56.5571 19.8585 55.739V52.3453C19.8585 50.1473 18.0189 48.9177 15.7919 49" fill="white"/>
<path d="M37.3124 50.9307V49.5509C37.3124 49.3718 37.1672 49.2266 36.9881 49.2266H30.1232C29.9441 49.2266 29.7988 49.3718 29.7988 49.5509V50.9307C29.7988 51.1098 29.9441 51.255 30.1232 51.255H32.4325V58.3717C32.4325 58.5508 32.5777 58.696 32.7568 58.696H34.3641C34.5432 58.696 34.6885 58.5508 34.6885 58.3717V51.255H36.9832C37.1623 51.255 37.3076 51.1098 37.3076 50.9307" fill="white"/>
<path d="M46.9218 33.4632C47.4979 33.4632 47.9433 33.0081 47.9433 32.4562C47.9433 31.9043 47.4979 31.4492 46.9218 31.4492C46.3457 31.4492 45.9148 31.8801 45.9148 32.4562C45.9148 33.0323 46.3747 33.4632 46.9218 33.4632Z" fill="white"/>
<path d="M43.8298 33.4632C44.4059 33.4632 44.8513 33.0081 44.8513 32.4562C44.8513 31.9043 44.4059 31.4492 43.8298 31.4492C43.2537 31.4492 42.8325 31.8801 42.8325 32.4562C42.8325 33.0323 43.2779 33.4632 43.8298 33.4632Z" fill="white"/>
<path d="M55.1233 58.2284L53.0949 55.2801C53.9856 54.98 55.0943 53.9294 55.0943 52.419C55.0943 51.4991 54.7941 50.6761 54.2616 50.1581C53.6564 49.553 52.969 49.2383 51.3956 49.2383H47.7695C47.4355 49.2383 47.3677 49.398 47.3677 49.6546V58.2769C47.3677 58.6061 47.5129 58.6932 47.7695 58.6932H49.1928C49.4542 58.6932 49.6092 58.6061 49.6092 58.2769V51.2522H51.5215C52.2718 51.2522 52.8431 51.7267 52.8431 52.4771C52.8431 53.1548 52.1799 53.6438 51.4779 53.6438H51.1922C50.863 53.6438 50.7759 53.8036 50.7759 54.0601V55.2124C50.7711 55.5077 50.8292 55.7933 50.9986 56.0402C51.0712 56.1467 52.238 57.8847 52.4171 58.1558C52.4413 58.1897 52.4655 58.2285 52.4897 58.2623C52.693 58.5625 52.8625 58.6932 53.211 58.6932H54.9103C55.1814 58.6932 55.254 58.4318 55.1282 58.2333" fill="white"/>
<path d="M42.9037 49.672C42.773 49.3718 42.6326 49.2266 42.3131 49.2266H40.9333C40.6138 49.2266 40.4589 49.3718 40.3427 49.672L37.1475 58.2893C37.0749 58.4636 37.0749 58.6912 37.3944 58.6912H38.9048C39.2195 58.6912 39.3357 58.604 39.4519 58.2603L39.8537 57.1226H43.3781L43.78 58.2603C43.8962 58.604 44.0075 58.6912 44.327 58.6912H45.8375C46.157 58.6912 46.157 58.4588 46.0844 58.2893L42.9037 49.672ZM40.5412 55.1135L41.6208 51.9328L42.7004 55.1135H40.5412Z" fill="white"/>
<path d="M26.6613 49.672C26.5306 49.3718 26.3902 49.2266 26.0706 49.2266H24.6909C24.3762 49.2266 24.2164 49.3718 24.1003 49.672L20.905 58.2893C20.8324 58.4636 20.8324 58.6912 21.1519 58.6912H22.6624C22.9771 58.6912 23.0933 58.604 23.2095 58.2603L23.6113 57.1226H27.1357L27.5375 58.2603C27.6537 58.604 27.7651 58.6912 28.0846 58.6912H29.5951C29.9097 58.6912 29.9097 58.4588 29.842 58.2893L26.6613 49.672ZM24.2987 55.1135L25.3783 51.9328L26.4579 55.1135H24.2987Z" fill="white"/>
</svg>